<svg xmlns="http://www.w3.org/2000/svg" viewBox="-100 -100 500 500"><path style="fill:#000000" fill-rule="evenodd" d="M 37.5 85.71429 L 64.28571 85.71429 L 42.857143 107.14286 L 37.5 93.75 L 37.5 85.71429 M 115.71429 115.71428 L 150 150 L 115.71429 184.28572 L 115.71429 115.71428 M 150 150 L 178.28572 121.71428 L 180 128.57143 L 182.85715 117.14286 L 187.5 112.50001 L 187.5 187.5 L 150 150 M 187.5 0 L 225 0 L 225 75.00001 L 187.5 112.50001 L 187.5 98.57144 L 201.42857 42.857143 L 187.5 42.857143 L 187.5 0 M 187.5 187.5 L 214.28572 214.28572 L 187.5 214.28572 L 187.5 187.5 M 225 75.00001 L 262.5 37.5 L 262.5 49.285732 L 244.28572 85.71429 L 262.5 67.5 L 262.5 146.7857 L 244.28572 128.57143 L 244.28572 171.42857 L 262.5 171.42857 L 262.5 214.28572 L 225 214.28572 L 225 75.00001"/></svg>
