<svg xmlns="http://www.w3.org/2000/svg" viewBox="-100 -100 500 500"><path style="fill:#000000" fill-rule="evenodd" d="M 30 0 L 72.85714 0 L 51.42857 42.857143 L 30 0 M 34.285713 85.71429 L 64.28571 85.71429 L 42.857143 107.14286 L 34.285713 85.71429 M 42.857143 42.857143 L 51.42857 42.857143 L 115.71429 42.857143 L 115.71429 0 L 330 0 L 330 42.857143 L 342.85715 42.857143 L 330 68.57143 L 330 214.28572 L 115.71429 214.28572 L 115.71429 68.57142 L 85.71429 128.57143 L 42.857143 42.857143 M 158.57143 42.857143 L 180 128.57143 L 201.42857 42.857143 L 158.57143 42.857143 M 244.28572 85.71429 L 267.14285 62.857155 L 261.42856 51.42858 L 244.28572 85.71429 M 244.28572 128.57143 L 244.28572 171.42857 L 287.14285 171.42857 L 244.28572 128.57143"/></svg>
