<svg xmlns="http://www.w3.org/2000/svg" viewBox="-100 -100 500 500"><path style="fill:#000000" fill-rule="evenodd" d="M 0 0 L 30 0 L 72.85714 0 L 115.71429 0 L 300 0 L 330 0 L 330 214.28572 L 192.85715 214.28572 L 150 300 L 50 100 L 42.857143 107.14286 L 34.285713 85.71429 L 42.857143 85.71429 L 0 0 M 60 60 L 115.71429 171.42857 L 115.71429 60 L 60 60 M 137.14285 214.28572 L 150 240 L 162.85715 214.28572 L 137.14285 214.28572 M 162.85715 60 L 180 128.57143 L 197.14285 60 L 162.85715 60 M 244.28572 128.57143 L 244.28572 171.42857 L 287.14285 171.42857 L 244.28572 128.57143 M 270 60 L 287.14285 42.857143 L 278.57144 42.857143 L 270 60 M 0 0 L 0 300 L 0 0"/></svg>
