<svg xmlns="http://www.w3.org/2000/svg" viewBox="-100 -100 500 500"><path style="fill:#000000" fill-rule="evenodd" d="M 0 0 L 150 300 L 0 300 L 0 0 M 50 50 L 250 50 L 207.77777 134.44444 L 185.55556 128.88889 L 200 100 L 100 100 L 150 200 L 161.42857 177.14285 L 190 170 L 150 250 L 50 50 M 150 120 L 185.55556 128.88889 L 161.42857 177.14285 L 150 180 L 150 120 M 150 300 L 218.57143 162.85715 L 270 150 L 300 300 L 150 300 M 190 170 L 207.77777 134.44444 L 230 140 L 218.57143 162.85715 L 190 170 M 230 140 L 300 0 L 270 150 L 230 140"/></svg>
