<svg xmlns="http://www.w3.org/2000/svg" viewBox="-100 -100 500 500"><path style="fill:#000000" fill-rule="evenodd" d="M 25 25 L 42.5 25 L 60.35714 25 L 51.42857 42.857143 L 42.5 25 L 30 0 L 72.85714 0 L 60.35714 25 L 115.71429 25 L 137.5 25 L 137.5 137.5 L 115.71429 115.71428 L 115.71429 214.28572 L 330 214.28572 L 330 0 L 115.71429 0 L 115.71429 25 L 115.71429 115.71428 L 25 25 M 158.57143 42.857143 L 162.5 58.571434 L 162.5 42.857143 L 162.5 25 L 325 25 L 325 212.5 L 162.5 212.5 L 162.5 58.571434 L 180 128.57143 L 201.42857 42.857143 L 162.5 42.857143 L 158.57143 42.857143 M 34.285713 85.71429 L 64.28571 85.71429 L 42.857143 107.14286 L 34.285713 85.71429 M 244.28572 85.71429 L 265.7143 42.857143 L 287.14285 42.857143 L 244.28572 85.71429 M 244.28572 128.57143 L 287.14285 171.42857 L 244.28572 171.42857 L 244.28572 128.57143"/></svg>
