<svg xmlns="http://www.w3.org/2000/svg" viewBox="-100 -100 500 500"><path style="fill:#000000" fill-rule="evenodd" d="M 0 0 L 100 0 L 150 150 L 0 100 L 0 0 M 0 200 L 150 150 L 100 300 L 0 300 L 0 200 M 150 120 L 159.23077 122.30769 L 150 150 L 150 120 M 150 150 L 201.42857 132.85715 L 270 150 L 201.42857 167.14285 L 150 150 M 150 150 L 159.23077 177.6923 L 150 180 L 150 150 M 159.23077 122.30769 L 200 0 L 300 0 L 278.5714 107.14286 L 201.42857 132.85715 L 159.23077 122.30769 M 159.23077 177.6923 L 201.42857 167.14285 L 278.57144 192.85715 L 300 300 L 200 300 L 159.23077 177.6923 M 270 150 L 278.5714 107.14286 L 300 100 L 300 200 L 278.57144 192.85715 L 270 150"/></svg>
