<svg xmlns="http://www.w3.org/2000/svg" viewBox="-100 -100 500 500"><path style="fill:#000000" fill-rule="evenodd" d="M 0 100 L 75 125 L 75 175 L 0 200 L 0 100 M 75 75 L 141.66666 125 L 150 150 L 75 125 L 75 75 M 75 175 L 150 150 L 100 300 L 175 300 L 75 375 L 75 175 M 100 0 L 200 0 L 155 135 L 141.66666 125 L 100 0 M 150 150 L 155 135 L 167.3077 144.23077 L 150 150 M 150 150 L 195 165 L 225 187.5 L 175 225 L 150 150 M 167.3077 144.23077 L 300 100 L 300 131.25 L 236.53847 178.84616 L 195 165 L 167.3077 144.23077 M 175 225 L 225 262.5 L 195 285 L 175 225 M 175 300 L 195 285 L 200 300 L 175 300 M 225 187.5 L 236.53847 178.84616 L 300 200 L 300 131.25 L 375 75 L 375 375 L 225 262.5 L 275 225 L 225 187.5"/></svg>
