<svg xmlns="http://www.w3.org/2000/svg" viewBox="-100 -100 500 500"><path style="fill:#000000" fill-rule="evenodd" d="M -15 -15 L 285 -15 L 151.66666 145.00005 L 200 0 L 100 0 L 149.28572 147.85716 L 148.04349 149.34782 L 150 150 L 146.53847 151.15384 L 148.04349 149.34782 L 111.92308 137.3077 L 128.47826 157.1739 L 0 200 L 0 100 L 111.92308 137.3077 L -15 -15 M 100 300 L 150 150 L 151.66666 145.00005 L 149.28572 147.85716 L 150 150 L 300 100 L 300 200 L 150 150 L 200 300 L 100 300 M 128.47826 157.1739 L 146.53847 151.15384 L 135 165 L 128.47826 157.1739"/></svg>
