<svg xmlns="http://www.w3.org/2000/svg" viewBox="-100 -100 500 500"><path style="fill:#000000" fill-rule="evenodd" d="M 0 100 L 0 200 L 85.71429 171.42857 L 60 120 L 0 100 M 96 132 L 150 150 L 111.42857 162.85715 L 96 132 M 100 300 L 120 240 L 150 300 L 100 300 M 120 60 L 180 60 L 150 150 L 120 60 M 132 204 L 150 150 L 168 204 L 150 240 L 132 204 M 150 150 L 204 132 L 188.57143 162.85715 L 150 150 M 150 300 L 180 240 L 200 300 L 150 300 M 214.2857 171.42857 L 240 120 L 300 100 L 300 200 L 214.2857 171.42857"/></svg>
