<svg xmlns="http://www.w3.org/2000/svg" viewBox="-100 -100 500 500"><path style="fill:#000000" fill-rule="evenodd" d="M 0 100 L 115.71429 138.57143 L 150 150 L 115.71429 161.42857 L 115.71429 214.28572 L 128.57143 214.28572 L 100 300 L 200 300 L 171.42857 214.28572 L 330 214.28572 L 330 0 L 200 0 L 185.71428 42.857143 L 201.42857 42.857143 L 180 128.57143 L 170.20409 89.38775 L 185.71428 42.857143 L 158.57143 42.857143 L 170.20409 89.38775 L 150 150 L 300 100 L 300 200 L 150 150 L 171.42857 214.28572 L 128.57143 214.28572 L 150 150 L 115.71429 47.14286 L 115.71429 138.57143 L 115.71429 161.42857 L 0 200 L 0 100 M 244.28572 85.71429 L 287.14285 42.857143 L 265.7143 42.857143 L 244.28572 85.71429 M 30 0 L 72.85714 0 L 51.42857 42.857143 L 30 0 M 34.285713 85.71429 L 64.28571 85.71429 L 42.857143 107.14286 L 34.285713 85.71429 M 100 0 L 115.71429 0 L 115.71429 47.14286 L 100 0 M 244.28572 128.57143 L 287.14285 171.42857 L 244.28572 171.42857 L 244.28572 128.57143"/></svg>
