<svg xmlns="http://www.w3.org/2000/svg" viewBox="-100 -100 500 500"><path style="fill:#000000" fill-rule="evenodd" d="M 0 100 L 80.76923 126.92308 L 37.5 187.5 L 0 200 L 0 100 M 0 240 L 37.5 187.5 L 150 150 L 120 240 L 0 240 M 80.76923 126.92308 L 122.72727 68.18182 L 150 150 L 80.76923 126.92308 M 100 0 L 200 0 L 177.27274 68.18182 L 150 30 L 122.72727 68.18182 L 100 0 M 100 300 L 120 240 L 180 240 L 200 300 L 100 300 M 150 150 L 177.27274 68.18182 L 219.23077 126.92308 L 150 150 M 150 150 L 262.5 187.5 L 300 240 L 180 240 L 150 150 M 219.23077 126.92308 L 300 100 L 300 200 L 262.5 187.5 L 219.23077 126.92308"/></svg>
