<svg xmlns="http://www.w3.org/2000/svg" viewBox="-100 -100 500 500"><path style="fill:#000000" fill-rule="evenodd" d="M 0 100 L 150 150 L 0 200 L 0 100 M 62.5 62.5 L 120.83333 62.5 L 150 150 L 62.5 62.5 M 100 0 L 200 0 L 179.16667 62.5 L 162.5 62.5 L 176.2931 71.12069 L 150 150 L 100 300 L 200 300 L 150 150 L 187.5 187.5 L 196.32353 165.44118 L 300 200 L 300 148.4375 L 362.5 187.5 L 362.5 62.5 L 237.5 62.5 L 179.16667 62.5 L 120.83333 62.5 L 100 0 M 150 150 L 196.32353 165.44118 L 210.57693 129.8077 L 150 150 M 176.2931 71.12069 L 222.5 100.00001 L 237.5 62.5 L 179.16667 62.5 L 176.2931 71.12069 M 210.57693 129.8077 L 249.45651 116.847824 L 222.5 100.00001 L 210.57693 129.8077 M 249.45651 116.847824 L 300 148.4375 L 300 100 L 249.45651 116.847824"/></svg>
