<svg xmlns="http://www.w3.org/2000/svg" viewBox="-100 -100 500 500"><path style="fill:#000000" d="M 0 0 L 30 0 L 51.42857 42.857143 L 72.85714 0 L 115.71429 0 L 115.71429 60 L 60 60 L 115.71429 171.42857 L 115.71429 214.28572 L 137.14285 214.28572 L 150 240 L 162.85715 214.28572 L 192.85715 214.28572 L 150 300 L 50 100 L 64.28571 85.71429 L 42.857143 85.71429 L 0 0 L 0 300 L 0 0 M 158.57143 42.857143 L 162.85715 60 L 197.14285 60 L 201.42857 42.857143 L 158.57143 42.857143 M 244.28572 85.71429 L 270 60 L 278.57144 42.857143 L 265.7143 42.857143 L 244.28572 85.71429"/></svg>
