<svg xmlns="http://www.w3.org/2000/svg" viewBox="-100 -100 500 500"><path style="fill:#000000" d="M 0 0 L 100 0 L 200 0 L 300 0 L 240 120 L 300 100 L 300 200 L 214.2857 171.42857 L 180 240 L 200 300 L 150 300 L 100 300 L 120 240 L 85.71429 171.42857 L 0 0 L 0 100 L 0 0 M 60 60 L 96 132 L 150 150 L 120 60 L 60 60 M 111.42857 162.85715 L 132 204 L 150 150 L 111.42857 162.85715 M 150 150 L 168 204 L 188.57143 162.85715 L 150 150 L 204 132 L 240 60 L 180 60 L 150 150 M 0 200 L 0 300 L 0 200"/></svg>
