<svg xmlns="http://www.w3.org/2000/svg" viewBox="-100 -100 500 500"><path style="fill:#000000" d="M 0 0 L 30 0 L 72.85714 0 L 115.71429 0 L 300 0 L 330 0 L 330 214.28572 L 192.85715 214.28572 L 150 300 L 50 100 L 42.857143 107.14286 L 34.285713 85.71429 L 42.857143 85.71429 L 0 0 M 50 50 L 115.71429 181.42857 L 115.71429 131.42857 L 100 100 L 115.71429 100 L 115.71429 50 L 50 50 M 132.14285 214.28572 L 150 250 L 167.85715 214.28572 L 132.14285 214.28572 M 160.35715 50 L 172.85715 100 L 187.14285 100 L 199.64285 50 L 160.35715 50 M 244.28572 128.57143 L 244.28572 171.42857 L 287.14285 171.42857 L 244.28572 128.57143 M 270 60 L 287.14285 42.857143 L 278.57144 42.857143 L 270 60"/></svg>
