<svg xmlns="http://www.w3.org/2000/svg" viewBox="-100 -100 500 500"><path style="fill:#000000" d="M 37.5 37.5 L 50 50 L 116.66667 183.33334 L 100 200 L 37.5 75 L 37.5 37.5 M 100 100 L 150.00002 150.00002 L 133.33334 166.66669 L 100 100 M 150.00002 150.00002 L 187.5 112.50003 L 200 100.00003 L 200 100 L 187.5 100 L 187.5 112.50003 L 187.5 125.00002 L 166.66667 166.66667 L 150.00002 150.00002 M 183.33333 183.33333 L 187.5 174.99998 L 187.5 187.5 L 183.33333 183.33333 M 187.5 0 L 225 0 L 225 50 L 187.5 50 L 187.5 0 M 187.5 187.5 L 200 200 L 187.5 225 L 187.5 187.5 M 225 100 L 250 50.00001 L 262.5 37.5 L 262.5 75 L 225 150 L 225 100"/></svg>
