<svg xmlns="http://www.w3.org/2000/svg" viewBox="-100 -100 500 500"><path style="fill:#000000" fill-rule="evenodd" d="M 0 0 L 100 0 L 116.66667 50 L 50 50 L 90 130 L 60 120 L 85.71429 171.42857 L 0 200 L 0 100 L 60 120 L 0 0 M 85.71429 171.42857 L 107.14286 164.28572 L 128.57143 157.14285 L 150 150 L 140 180 L 150 200 L 160 180 L 171.42857 157.14285 L 180 140 L 200 100 L 166.66667 100 L 183.33334 50 L 200 0 L 300 0 L 240 120 L 300 100 L 300 200 L 214.2857 171.42857 L 240 120 L 210 130 L 250 50 L 183.33334 50 L 116.66667 50 L 133.33334 100 L 100 100 L 120 140 L 90 130 L 107.14286 164.28572 L 130 210 L 120 240 L 150 300 L 100 300 L 120 240 L 85.71429 171.42857 M 120 140 L 128.57143 157.14285 L 140 180 L 130 210 L 150 250 L 170 210 L 160 180 L 150 150 L 171.42857 157.14285 L 192.85715 164.28572 L 170 210 L 180 240 L 150 300 L 200 300 L 180 240 L 214.2857 171.42857 L 192.85715 164.28572 L 210 130 L 180 140 L 150 150 L 133.33334 100 L 166.66667 100 L 150 150 L 120 140"/></svg>
