<svg xmlns="http://www.w3.org/2000/svg" viewBox="-100 -100 500 500"><path style="fill:#000000" d="M 30 0 L 72.85714 0 L 51.42857 42.857143 L 30 0 M 34.285713 85.71429 L 37.5 85.71429 L 37.5 37.5 L 115.71429 115.71428 L 115.71429 0 L 187.5 0 L 225 0 L 330 0 L 330 214.28572 L 262.5 214.28572 L 262.5 262.5 L 225 225 L 225 300 L 187.5 300 L 187.5 214.28572 L 115.71429 214.28572 L 115.71429 184.28572 L 37.5 262.5 L 37.5 93.75 L 34.285713 85.71429 M 158.57143 42.857143 L 178.28572 121.71428 L 182.85715 117.14286 L 187.5 98.57144 L 187.5 42.857143 L 158.57143 42.857143 M 214.28572 214.28572 L 225 225 L 225 214.28572 L 214.28572 214.28572 M 262.5 49.285732 L 262.5 67.5 L 287.14285 42.857143 L 265.7143 42.857143 L 262.5 49.285732 M 262.5 146.7857 L 262.5 171.42857 L 287.14285 171.42857 L 262.5 146.7857"/></svg>
