<svg xmlns="http://www.w3.org/2000/svg" viewBox="-100 -100 500 500"><path style="fill:#000000" d="M -14.285714 -14.285714 L 285.7143 -14.285714 L 285.7143 0 L 115.71429 0 L 115.71429 214.28572 L 285.7143 214.28572 L 330 214.28572 L 330 0 L 285.7143 0 L 285.7143 42.857143 L 265.7143 42.857143 L 244.28572 85.71429 L 285.7143 44.2857 L 287.14285 42.857143 L 285.7143 42.857143 L 285.7143 44.2857 L 285.7143 170.00003 L 244.28572 128.57143 L 244.28572 171.42857 L 285.7143 171.42857 L 287.14285 171.42857 L 285.7143 170.00003 L 285.7143 171.42857 L 285.7143 214.28572 L 285.7143 285.7143 L -14.285714 285.7143 L -14.285714 -14.285714 M 30 0 L 51.42857 42.857143 L 72.85714 0 L 30 0 M 34.285713 85.71429 L 42.857143 107.14286 L 64.28571 85.71429 L 34.285713 85.71429 M 158.57143 42.857143 L 201.42857 42.857143 L 180 128.57143 L 158.57143 42.857143"/></svg>
