<svg xmlns="http://www.w3.org/2000/svg" viewBox="-100 -100 500 500"><path style="fill:#000000" fill-rule="evenodd" d="M -15 -15 L 285 -15 L 272.5 0 L 330 0 L 330 214.28572 L 115.71429 214.28572 L 115.71429 141.85715 L 135 165 L 176.62088 115.05495 L 186.27551 103.46939 L 180 128.57143 L 176.62088 115.05495 L 158.57143 42.857143 L 201.42857 42.857143 L 186.27551 103.46939 L 272.5 0 L 115.71429 0 L 115.71429 141.85715 L -15 -15 M 30 0 L 51.42857 42.857143 L 72.85714 0 L 30 0 M 244.28572 85.71429 L 287.14285 42.857143 L 265.7143 42.857143 L 244.28572 85.71429 M 244.28572 128.57143 L 244.28572 171.42857 L 287.14285 171.42857 L 244.28572 128.57143 M 34.285713 85.71429 L 64.28571 85.71429 L 42.857143 107.14286 L 34.285713 85.71429"/></svg>
