<svg xmlns="http://www.w3.org/2000/svg" viewBox="-100 -100 500 500"><path style="fill:#000000" fill-rule="evenodd" d="M 37.5 37.5 L 120 120 L 60 120 L 60 240 L 37.5 262.5 L 37.5 37.5 M 60 240 L 150 150 L 180 180 L 180 420 L 60 420 L 60 240 M 120 120 L 180 120 L 150 150 L 120 120 M 180 120 L 187.5 112.5 L 187.5 187.5 L 180 180 L 180 120 M 187.5 0 L 225 0 L 225 75 L 187.5 112.5 L 187.5 0 M 187.5 187.5 L 225 225 L 225 300 L 187.5 300 L 187.5 187.5 M 225 75 L 262.5 37.5 L 262.5 262.5 L 225 225 L 225 75"/></svg>
