<svg xmlns="http://www.w3.org/2000/svg" viewBox="-100 -100 500 500"><path style="fill:#000000" d="M 0 0 L 187.5 0 L 187.5 112.5 L 174 126 L 150 120 L 150 150 L 37.5 37.5 L 37.5 262.5 L 150 150 L 150 180 L 174 174 L 187.5 187.5 L 225 225 L 262.5 262.5 L 262.5 151.875 L 270 150 L 300 0 L 225 0 L 225 75 L 187.5 112.5 L 187.5 129.375 L 225 138.75 L 225 75 L 262.5 37.5 L 262.5 148.125 L 270 150 L 300 300 L 225 300 L 225 225 L 225 161.25 L 187.5 170.625 L 187.5 187.5 L 187.5 300 L 0 300 L 0 0"/></svg>
