<svg xmlns="http://www.w3.org/2000/svg" viewBox="-100 -100 500 500"><path style="fill:#000000" fill-rule="evenodd" d="M 0 0 L 187.5 0 L 187.5 112.5 L 150 150 L 187.5 187.5 L 200 200 L 187.5 225 L 187.5 300 L 225 300 L 225 225 L 262.5 262.5 L 262.5 75 L 300 0 L 225 0 L 225 75 L 187.5 112.5 L 187.5 187.5 L 187.5 225 L 150 300 L 100 200 L 150 150 L 37.5 37.5 L 37.5 75 L 0 0 M 200 200 L 225 225 L 225 150 L 225 75 L 262.5 37.5 L 262.5 75 L 225 150 L 200 200 M 37.5 75 L 100 200 L 37.5 262.5 L 37.5 75"/></svg>
