<svg xmlns="http://www.w3.org/2000/svg" viewBox="-100 -100 500 500"><path style="fill:#000000" d="M 30 0 L 72.85714 0 L 51.42857 42.857143 L 30 0 M 34.285713 85.71429 L 64.28571 85.71429 L 42.857143 107.14286 L 34.285713 85.71429 M 75 75 L 115.71429 105.53571 L 225 187.5 L 189.2857 214.28572 L 260.7143 214.28572 L 330 214.28572 L 330 108.75 L 375 75 L 375 375 L 225 262.5 L 275 225 L 260.7143 214.28572 L 225 187.5 L 246.42856 171.42857 L 269.69388 153.97958 L 330 108.75 L 330 0 L 115.71429 0 L 115.71429 105.53571 L 115.71429 214.28572 L 189.2857 214.28572 L 175 225 L 225 262.5 L 75 375 L 75 75 M 158.57143 42.857143 L 180 128.57143 L 201.42857 42.857143 L 158.57143 42.857143 M 244.28572 85.71429 L 287.14285 42.857143 L 265.7143 42.857143 L 244.28572 85.71429 M 244.28572 128.57143 L 244.28572 171.42857 L 246.42856 171.42857 L 287.14285 171.42857 L 269.69388 153.97958 L 244.28572 128.57143"/></svg>
