<svg xmlns="http://www.w3.org/2000/svg" viewBox="-100 -100 500 500"><path style="fill:#000000" fill-rule="evenodd" d="M 37.5 37.5 L 75 75 L 160.7143 139.2857 L 150 150 L 187.5 187.5 L 203.57144 203.57144 L 187.5 215.62502 L 187.5 234.375 L 175 225 L 187.5 215.62502 L 187.5 187.5 L 187.5 159.375 L 225 187.5 L 225.00002 187.50002 L 225 187.50003 L 225 225 L 203.57144 203.57144 L 225 187.50003 L 225 187.5 L 225 75.00001 L 262.5 37.5 L 262.5 159.37502 L 225.00002 187.50002 L 262.5 215.625 L 275 225 L 262.5 234.375 L 262.5 262.5 L 246.42857 246.42857 L 262.5 234.375 L 262.5 215.625 L 262.5 159.37502 L 375 75 L 375 375 L 225 262.5 L 225 300 L 187.5 300 L 187.5 290.625 L 225 262.5 L 246.42857 246.42857 L 225 225 L 225 262.5 L 187.5 234.375 L 187.5 290.625 L 75 375 L 75 225 L 150 150 L 75 75 L 75 225 L 37.5 262.5 L 37.5 37.5 M 160.7143 139.2857 L 187.5 112.50001 L 225 75.00001 L 225 0 L 187.5 0 L 187.5 112.50001 L 187.5 159.375 L 160.7143 139.2857"/></svg>
