<svg xmlns="http://www.w3.org/2000/svg" viewBox="-100 -100 500 500"><path style="fill:#000000" d="M 25,25 42.5,25.000000000000004 60.35714285714286,25.000000000000004 51.42857142857143,42.857142857142854 42.5,25.000000000000004 30,0 72.85714285714286,0 60.35714285714286,25.000000000000004 115.71428571428571,25 137.5,25 137.5,137.5 115.71428571428571,115.7142857142857 115.71428571428571,214.28571428571428 330,214.28571428571428 330,0 115.71428571428571,0 115.71428571428571,25 115.71428571428571,115.7142857142857 25,25 L 34.285714285714285,85.71428571428571 64.28571428571428,85.71428571428571 42.857142857142854,107.14285714285714 34.285714285714285,85.71428571428571 L 158.57142857142856,42.857142857142854 162.5,42.857142857142854 201.42857142857142,42.857142857142854 180,128.57142857142856 162.5,58.57142857142862 162.5,212.5 325,212.5 325,25 162.5,25 162.5,42.857142857142854 162.5,58.57142857142862 158.57142857142856,42.857142857142854 L 244.28571428571428,85.71428571428571 265.7142857142857,42.857142857142854 287.1428571428571,42.857142857142854 244.28571428571428,85.71428571428571 L 244.28571428571428,128.57142857142856 287.1428571428571,171.42857142857142 244.28571428571428,171.42857142857142 244.28571428571428,128.57142857142856"/></svg>
