<svg xmlns="http://www.w3.org/2000/svg" viewBox="-100 -100 500 500"><path style="fill:#000000" fill-rule="evenodd" d="M 0,100 60,120 85.71428571428571,171.42857142857142 0,200 0,100 M 90,130 120,140 128.57142857142856,157.14285714285714 107.14285714285714,164.28571428571428 90,130 L 100,300 120,240 150,300 100,300 L 116.66666666666666,50 183.33333333333331,50 166.66666666666666,100 133.33333333333331,100 116.66666666666666,50 M 130,210 140,180 150,200 160,180 170,210 150,250 130,210 L 150,300 180,240 200,300 150,300 L 171.42857142857144,157.14285714285714 180,140 210,130 192.85714285714286,164.28571428571428 171.42857142857144,157.14285714285714 L 214.28571428571428,171.42857142857142 240,120 300,100 300,200 214.28571428571428,171.42857142857142"/></svg>
