<svg xmlns="http://www.w3.org/2000/svg" viewBox="-100 -100 500 500"><path style="fill:#000000" d="M 0,0 100,0 150,150 0,100 0,0 M 0,200 150,150 100,300 0,300 0,200 M 150,120 159.23076923076923,122.3076923076923 150,150 201.42857142857144,132.85714285714286 278.57142857142856,107.14285714285714 270,150 278.57142857142856,192.85714285714286 201.4285714285714,167.14285714285714 270,150 201.42857142857144,132.85714285714286 159.23076923076923,122.3076923076923 200,0 300,0 278.57142857142856,107.14285714285714 300,100 300,200 278.57142857142856,192.85714285714286 300,300 200,300 159.23076923076923,177.69230769230768 201.4285714285714,167.14285714285714 150,150 159.23076923076923,177.69230769230768 150,180 150,150 150,120"/></svg>
