<svg xmlns="http://www.w3.org/2000/svg" viewBox="-100 -100 500 500"><path style="fill:#000000" d="M 60,120 90,130 107.14285714285714,164.28571428571428 85.71428571428571,171.42857142857142 60,120 L 100,0 200,0 183.33333333333331,50 116.66666666666666,50 100,0 M 120,140 150,150 128.57142857142856,157.14285714285714 120,140 M 120,240 130,210 150,250 170,210 180,240 150,300 120,240 M 133.33333333333331,100 166.66666666666666,100 150,150 180,140 171.42857142857144,157.14285714285714 150,150 160,180 150,200 140,180 150,150 133.33333333333331,100 M 192.85714285714286,164.28571428571428 210,130 240,120 214.28571428571428,171.42857142857142 192.85714285714286,164.28571428571428"/></svg>
