<svg xmlns="http://www.w3.org/2000/svg" viewBox="-100 -100 500 500"><path style="fill:#000000" d="M 0,100 80.76923076923076,126.92307692307692 37.5,187.5 150,150 120,240 180,240 300,240 262.5,187.5 300,200 300,100 219.23076923076923,126.92307692307693 262.5,187.5 150,150 180,240 200,300 100,300 120,240 0,240 37.5,187.5 0,200 0,100 M 80.76923076923076,126.92307692307692 122.72727272727272,68.18181818181817 150,30 177.27272727272728,68.18181818181819 150,150 219.23076923076923,126.92307692307693 177.27272727272728,68.18181818181819 200,0 100,0 122.72727272727272,68.18181818181817 150,150 80.76923076923076,126.92307692307692"/></svg>
