<svg xmlns="http://www.w3.org/2000/svg" viewBox="-100 -100 500 500"><path style="fill:#000000" fill-rule="evenodd" d="M 0,100 60,120 85.71428571428571,171.42857142857142 0,100 0,200 M 96,132 150,150 111.42857142857142,162.85714285714283 96,132 L 100,300 120,240 150,300 100,300 L 120,60 180,60 150,150 204,132 188.57142857142858,162.85714285714286 150,150 168,204 150,240 132,204 150,150 120,60 L 150,300 180,240 200,300 150,300 L 214.28571428571428,171.42857142857142 240,120 300,100 300,200 214.28571428571428,171.42857142857142"/></svg>
