<svg xmlns="http://www.w3.org/2000/svg" viewBox="-100 -100 500 500"><path style="fill:#000000" d="M 0,100 150,150 0,200 0,100 M 62.5,62.5 120.83333333333334,62.5 179.16666666666666,62.5 162.5,62.5 176.29310344827584,71.12068965517241 150,150 210.57692307692307,129.80769230769232 196.3235294117647,165.44117647058823 300,200 300,148.4375 362.5,187.5 362.5,62.5 237.5,62.5 222.5,100 249.45652173913044,116.84782608695653 210.57692307692307,129.80769230769232 222.5,100 176.29310344827584,71.12068965517241 179.16666666666666,62.5 200,0 100,0 120.83333333333334,62.5 150,150 62.5,62.5 L 100,300 150,150 196.3235294117647,165.44117647058823 187.5,187.5 150,150 200,300 100,300 M 179.16666666666666,62.5 237.5,62.5 179.16666666666666,62.5 M 249.45652173913044,116.84782608695653 300,100 300,148.4375 249.45652173913044,116.84782608695653"/></svg>
