<svg xmlns="http://www.w3.org/2000/svg" viewBox="-100 -100 500 500"><path style="fill:#000000" fill-rule="evenodd" d="M 0,0 300,0 268.75,62.5 362.5,62.5 362.5,187.5 243.45238095238096,113.0952380952381 268.75,62.5 238.75,62.5 240,60 60,60 150,240 180,180 220.5952380952381,98.80952380952381 232.5,75.00000000000001 222.5,100 243.45238095238096,113.0952380952381 150,300 0,0 0,300 0,0 M 62.5,62.5 237.5,62.5 232.5,75.00000000000001 238.75,62.5 237.5,62.5 162.5,62.5 220.5952380952381,98.80952380952381 222.5,100 187.5,187.5 180,180 62.5,62.5"/></svg>
