<svg xmlns="http://www.w3.org/2000/svg" viewBox="-100 -100 500 500"><path style="fill:#000000" fill-rule="evenodd" d="M 0,0 300,0 229.41176470588235,141.1764705882353 300,240 180,240 229.41176470588235,141.1764705882353 211.76470588235293,116.47058823529413 240,60 171.42857142857142,60 211.76470588235293,116.47058823529413 150,240 180,240 150,300 120,240 150,240 88.23529411764706,116.47058823529412 128.57142857142856,60 150,30 171.42857142857142,60 128.57142857142856,60 60,60 88.23529411764706,116.47058823529412 70.58823529411765,141.1764705882353 120,240 0,240 0,300 0,240 70.58823529411765,141.1764705882353 0,0 0,240 0,0"/></svg>
