<svg xmlns="http://www.w3.org/2000/svg" viewBox="-100 -100 500 500"><path style="fill:#000000" fill-rule="evenodd" d="M 0,0 187.5,0 225,0 300,0 262.5,75 262.5,37.5 250,50 225,50 225,0 225,150 225,100.00000000000001 187.5,175.00000000000003 187.5,187.5 183.33333333333334,183.33333333333334 150,250 116.66666666666666,183.33333333333331 100,200 150,300 187.5,225 187.5,187.5 200,200 187.5,124.99999999999999 187.5,112.49999999999997 199.99999999999997,100 200,100 149.99999999999997,149.99999999999997 166.66666666666666,166.66666666666666 150,200 133.33333333333331,166.66666666666663 149.99999999999997,149.99999999999997 100,100 187.5,100 187.5,112.49999999999997 50,50 37.5,37.5 37.5,75 0,0 L 187.5,0 187.5,50"/></svg>
