<svg xmlns="http://www.w3.org/2000/svg" viewBox="-100 -100 500 500"><path style="fill:#000000" d="M 0,0 100,0 200,0 183.33333333333331,50 250,50 210,130 240,120 300,0 200,0 214.28571428571428,171.42857142857142 180,240 170,210 192.85714285714286,164.28571428571428 200,100 166.66666666666666,100 150,150 180,140 160,180 150,150 171.42857142857144,157.14285714285714 140,180 128.57142857142856,157.14285714285714 150,150 120,140 100,100 133.33333333333331,100 150,150 120,240 85.71428571428571,171.42857142857142 107.14285714285714,164.28571428571428 130,210 50,50 90,130 60,120 0,0 L 100,0 116.66666666666666,50"/></svg>
