<svg xmlns="http://www.w3.org/2000/svg" viewBox="-100 -100 500 500"><path style="fill:#000000" d="M 0,0 150,300 0,300 0,0 L 50,50 250,50 207.77777777777777,134.44444444444446 230,140 218.57142857142858,162.85714285714286 270,150 300,0 230,140 270,150 300,300 150,300 218.57142857142858,162.85714285714286 190,170 207.77777777777777,134.44444444444446 185.55555555555554,128.88888888888889 200,100 100,100 150,200 161.42857142857142,177.14285714285714 185.55555555555554,128.88888888888889 150,120 150,180 161.42857142857142,177.14285714285714 190,170 150,250 50,50"/></svg>
