<svg xmlns="http://www.w3.org/2000/svg" viewBox="-100 -100 500 500"><path style="fill:#000000" d="M 0,0 30,0 72.85714285714286,0 51.42857142857143,42.857142857142854 30,0 42.857142857142854,85.71428571428571 64.28571428571428,85.71428571428571 50,100 150,300 192.85714285714286,214.28571428571428 167.85714285714286,214.28571428571428 150,250 132.14285714285714,214.28571428571428 115.71428571428571,214.28571428571428 115.71428571428571,181.42857142857142 50,50 115.71428571428571,50 115.71428571428571,0 300,0 270,59.99999999999996 244.28571428571428,85.71428571428571 265.7142857142857,42.857142857142854 278.57142857142856,42.857142857142854 199.64285714285714,50 160.35714285714283,50 158.57142857142856,42.857142857142854 201.42857142857142,42.857142857142854 180,128.57142857142856 172.85714285714286,100 187.14285714285714,100 100,100 115.71428571428571,100 115.71428571428571,131.42857142857142 72.85714285714286,0"/></svg>
