<svg xmlns="http://www.w3.org/2000/svg" viewBox="-100 -100 500 500"><path style="fill:#000000" fill-rule="evenodd" d="M 60,120 90,130 107.14285714285714,164.28571428571428 85.71428571428571,171.42857142857142 60,120 M 100,0 200,0 100,0 116.66666666666666,50 183.33333333333331,50 200,0 214.28571428571428,171.42857142857142 240,120 210,130 192.85714285714286,164.28571428571428 150,300 120,240 130,210 150,250 170,210 180,240 171.42857142857144,157.14285714285714 150,150 160,180 150,200 140,180 150,150 166.66666666666666,100 133.33333333333331,100 150,150 120,140 128.57142857142856,157.14285714285714 150,150 180,140"/></svg>
