<svg xmlns="http://www.w3.org/2000/svg" viewBox="-100 -100 500 500"><path style="fill:#000000" d="M 0,0 187.5,0 225,0 300,0 262.5,75 262.5,262.5 225,225 225,300 187.5,300 187.5,225 200,200 225,150 262.5,75 262.5,37.5 250,50 225,100.00000000000001 225,150 225,225 200,200 187.5,187.5 187.5,225 150,300 100,200 116.66666666666666,183.33333333333331 133.33333333333331,166.66666666666663 149.99999999999997,149.99999999999997 187.5,112.49999999999997 199.99999999999997,100 225,74.99999999999999 250,50 225,50 225,74.99999999999999 225,100.00000000000001 187.5,175.00000000000003 187.5,187.5 183.33333333333334,183.33333333333334 187.5,175.00000000000003 187.5,124.99999999999999 200,100 199.99999999999997,100 187.5,100 187.5,112.49999999999997 187.5,124.99999999999999 166.66666666666666,166.66666666666666 183.33333333333334,183.33333333333334 150,250 116.66666666666666,183.33333333333331 50,50 100,100 187.5,100 187.5,50 225,50 225,0 50,50 37.5,37.5 37.5,75 0,0 M 37.5,75 100,200 37.5,262.5 37.5,75 M 100,100 149.99999999999997,149.99999999999997 166.66666666666666,166.66666666666666 150,200 133.33333333333331,166.66666666666663 100,100 L 187.5,0 187.5,50"/></svg>
