<svg xmlns="http://www.w3.org/2000/svg" viewBox="-100 -100 500 500"><path style="fill:#000000" fill-rule="evenodd" d="M 37.5,75 100,200 37.5,262.5 37.5,75 M 50,50 100,100 133.33333333333331,166.66666666666663 116.66666666666666,183.33333333333331 50,50 L 166.66666666666666,166.66666666666666 187.5,124.99999999999999 187.5,175.00000000000003 183.33333333333334,183.33333333333334 166.66666666666666,166.66666666666666 L 187.5,50 225,50 225,74.99999999999999 199.99999999999997,100 187.5,100 187.5,50 L 187.5,225 200,200 225,225 262.5,262.5 262.5,75 225,150 225,225 225,300 187.5,300 187.5,225 M 225,74.99999999999999 250,50 225,100.00000000000001 225,74.99999999999999"/></svg>
