<svg xmlns="http://www.w3.org/2000/svg" viewBox="-100 -100 500 500"><path style="fill:#000000" fill-rule="evenodd" d="M 0,100 37.5,112.5 150,150 37.5,187.5 37.5,262.5 150,150 100,300 187.5,300 187.5,262.5 200,300 225,300 225,225 262.5,262.5 262.5,187.5 300,200 300,100 262.5,112.5 262.5,187.5 225,175 225,225 187.5,187.5 187.5,262.5 150,150 187.5,187.5 187.5,162.5 225,175 225,125 262.5,112.5 262.5,37.5 225,75 225,125 187.5,137.5 187.5,162.5 150,150 187.5,137.5 187.5,112.5 225,75 225,0 200,0 187.5,37.5 187.5,112.5 150,150 187.5,37.5 187.5,0 100,0 150,150 37.5,37.5 37.5,112.5 37.5,187.5 0,200 0,100"/></svg>
