<svg xmlns="http://www.w3.org/2000/svg" viewBox="-100 -100 500 500"><path style="fill:#000000" d="M 37.5,37.5 50,50 116.66666666666666,183.33333333333331 100,200 37.5,75 37.5,37.5 M 100,100 149.99999999999997,149.99999999999997 133.33333333333331,166.66666666666663 100,100 M 149.99999999999997,149.99999999999997 187.5,112.49999999999997 199.99999999999997,100 187.5,100 187.5,112.49999999999997 187.5,124.99999999999999 166.66666666666666,166.66666666666666 149.99999999999997,149.99999999999997 M 183.33333333333334,183.33333333333334 187.5,175.00000000000003 187.5,187.5 183.33333333333334,183.33333333333334 L 187.5,0 225,0 225,50 187.5,50 187.5,0 M 187.5,187.5 200,200 187.5,225 187.5,187.5 M 225,100.00000000000001 250,50 262.5,37.5 262.5,75 225,150 225,100.00000000000001"/></svg>
