<svg xmlns="http://www.w3.org/2000/svg" viewBox="-100 -100 500 500"><path style="fill:#000000" fill-rule="evenodd" d="M 37.5,37.5 75,75 75,225 37.5,262.5 37.5,37.5 M 160.71428571428572,139.28571428571428 187.5,112.49999999999999 225,74.99999999999997 262.5,37.5 262.5,159.375 225,187.5 262.5,215.625 262.5,234.375 246.42857142857142,246.42857142857142 225,225 225,262.5 187.5,234.375 187.5,215.625 203.57142857142858,203.57142857142858 225,225 225,187.5 225,74.99999999999997 225,0 187.5,0 187.5,112.49999999999999 187.5,159.375 160.71428571428572,139.28571428571428 L 187.5,290.625 225,262.5 225,300 187.5,300 187.5,290.625"/></svg>
