<svg xmlns="http://www.w3.org/2000/svg" viewBox="-100 -100 500 500"><path style="fill:#000000" fill-rule="evenodd" d="M 37.5,37.5 115.71428571428571,115.71428571428572 115.71428571428571,184.28571428571428 37.5,262.5 37.5,93.75 42.857142857142854,107.14285714285714 64.28571428571428,85.71428571428571 37.5,85.71428571428571 37.5,37.5 M 178.28571428571428,121.7142857142857 182.85714285714286,117.14285714285711 180,128.57142857142856 178.28571428571428,121.7142857142857 L 187.5,42.857142857142854 201.42857142857142,42.857142857142854 187.5,98.57142857142853 187.5,42.857142857142854 L 187.5,214.28571428571428 214.28571428571428,214.28571428571428 225,225 262.5,262.5 262.5,214.28571428571428 225,214.28571428571428 225,225 225,300 187.5,300 187.5,214.28571428571428 L 244.28571428571428,85.71428571428571 262.5,49.28571428571429 262.5,67.49999999999997 244.28571428571428,85.71428571428571 L 244.28571428571428,128.57142857142856 262.5,146.78571428571428 262.5,171.42857142857142 244.28571428571428,171.42857142857142 244.28571428571428,128.57142857142856"/></svg>
