<svg xmlns="http://www.w3.org/2000/svg" viewBox="-100 -100 500 500"><path style="fill:#000000" fill-rule="evenodd" d="M 0,0 30,0 72.85714285714286,0 115.71428571428571,0 300,0 330,0 330,214.28571428571428 192.85714285714286,214.28571428571428 150,300 50,100 42.857142857142854,107.14285714285714 34.285714285714285,85.71428571428571 42.857142857142854,85.71428571428571 0,0 0,300 0,0 L 60,60 115.71428571428571,59.99999999999999 115.71428571428571,171.42857142857142 60,60 M 137.14285714285714,214.28571428571428 162.85714285714286,214.28571428571428 150,240 137.14285714285714,214.28571428571428 M 162.85714285714283,59.99999999999999 197.1428571428571,59.99999999999999 180,128.57142857142856 162.85714285714283,59.99999999999999 L 244.28571428571428,128.57142857142856 287.1428571428571,171.42857142857142 244.28571428571428,171.42857142857142 244.28571428571428,128.57142857142856 M 270,59.99999999999996 278.57142857142856,42.857142857142854 287.1428571428571,42.857142857142854 270,59.99999999999996"/></svg>
