<svg xmlns="http://www.w3.org/2000/svg" viewBox="-100 -100 500 500"><path style="fill:#000000" d="M 30,0 72.85714285714286,0 51.42857142857143,42.857142857142854 30,0 L 34.285714285714285,85.71428571428571 64.28571428571428,85.71428571428571 42.857142857142854,107.14285714285714 34.285714285714285,85.71428571428571 L 115.71428571428571,0 330,0 330,62.5 267.5,62.5 287.1428571428571,42.857142857142854 265.7142857142857,42.857142857142854 255.89285714285714,62.5 237.5,62.5 222.5,100 330,167.1875 330,214.28571428571428 115.71428571428571,214.28571428571428 115.71428571428571,115.7142857142857 187.5,187.5 191.9208494208494,80.88803088803087 163.66402116402114,63.22751322751321 180,128.57142857142856 162.5,62.5 196.5178571428571,62.5 201.42857142857142,42.857142857142854 158.57142857142856,42.857142857142854 163.48214285714283,62.5 115.71428571428571,62.5 115.71428571428571,0 M 163.48214285714283,62.5 196.5178571428571,62.5 237.5,62.5 196.5178571428571,62.5 L 244.28571428571428,128.57142857142856 287.1428571428571,171.42857142857142 244.28571428571428,171.42857142857142 244.28571428571428,128.57142857142856"/></svg>
