<svg xmlns="http://www.w3.org/2000/svg" viewBox="-100 -100 500 500"><path style="fill:#000000" fill-rule="evenodd" d="M 30,0 72.85714285714286,0 51.42857142857143,42.857142857142854 115.71428571428571,42.857142857142854 115.71428571428571,0 330,0 330,42.857142857142854 342.85714285714283,42.857142857142854 330,68.57142857142853 330,214.28571428571428 115.71428571428571,214.28571428571428 115.71428571428571,68.57142857142856 85.71428571428571,128.57142857142856 64.28571428571428,85.71428571428571 42.857142857142854,107.14285714285714 34.285714285714285,85.71428571428571 64.28571428571428,85.71428571428571 42.857142857142854,42.857142857142854 51.42857142857143,42.857142857142854 30,0 L 158.57142857142856,42.857142857142854 201.42857142857142,42.857142857142854 180,128.57142857142856 158.57142857142856,42.857142857142854 L 244.28571428571428,85.71428571428571 261.4285714285714,51.42857142857146 267.1428571428571,62.85714285714287 244.28571428571428,85.71428571428571 L 244.28571428571428,128.57142857142856 287.1428571428571,171.42857142857142 244.28571428571428,171.42857142857142 244.28571428571428,128.57142857142856"/></svg>
