<svg xmlns="http://www.w3.org/2000/svg" viewBox="-100 -100 500 500"><path style="fill:#000000" fill-rule="evenodd" d="M 30,0 72.85714285714286,0 51.42857142857143,42.857142857142854 30,0 L 34.285714285714285,85.71428571428571 64.28571428571428,85.71428571428571 42.857142857142854,107.14285714285714 34.285714285714285,85.71428571428571 M 75,75 115.71428571428571,105.53571428571428 115.71428571428571,0 330,0 330,108.75000000000001 375,75 375,375 225,262.5 275,225 260.71428571428567,214.28571428571428 189.28571428571428,214.28571428571428 175,225 225,262.5 75,375 75,75 L 158.57142857142856,42.857142857142854 201.42857142857142,42.857142857142854 180,128.57142857142856 158.57142857142856,42.857142857142854 L 244.28571428571428,85.71428571428571 265.7142857142857,42.857142857142854 287.1428571428571,42.857142857142854 244.28571428571428,85.71428571428571 L 244.28571428571428,128.57142857142856 269.6938775510204,153.9795918367347 246.42857142857144,171.42857142857142 244.28571428571428,171.42857142857142 244.28571428571428,128.57142857142856"/></svg>
