<svg xmlns="http://www.w3.org/2000/svg" viewBox="-100 -100 500 500"><path style="fill:#000000" fill-rule="evenodd" d="M 0,0 30,0 72.85714285714286,0 51.42857142857143,42.857142857142854 30,0 300,300 282.85714285714283,214.28571428571428 330,214.28571428571428 330,0 300,0 270,150 271.07142857142856,155.3571428571429 266.57142857142856,150.85714285714286 270,150 264.2857142857143,148.57142857142856 266.57142857142856,150.85714285714286 244.28571428571428,156.42857142857144 244.28571428571428,171.42857142857142 274.2857142857143,171.42857142857142 287.1428571428571,171.42857142857142 271.07142857142856,155.3571428571429 274.2857142857143,171.42857142857142 282.85714285714283,214.28571428571428 115.71428571428571,214.28571428571428 115.71428571428571,0 300,0 244.28571428571428,85.71428571428571 265.7142857142857,42.857142857142854 287.1428571428571,42.857142857142854 244.28571428571428,143.57142857142856 244.28571428571428,156.42857142857144 150,180 150,120 179.71428571428572,127.42857142857142 180.25210084033614,127.56302521008402 180,128.57142857142856 179.71428571428572,127.42857142857142 158.57142857142856,42.857142857142854 201.42857142857142,42.857142857142854 180.25210084033614,127.56302521008402 244.28571428571428,143.57142857142856 244.28571428571428,128.57142857142856 264.2857142857143,148.57142857142856 72.85714285714286,0 42.857142857142854,107.14285714285714 34.285714285714285,85.71428571428571 64.28571428571428,85.71428571428571 0,0"/></svg>
