<svg xmlns="http://www.w3.org/2000/svg" viewBox="-100 -100 500 500"><path style="fill:#000000" d="M 0,0 100,0 200,0 159.23076923076923,122.3076923076923 201.42857142857144,132.85714285714286 150,150 201.4285714285714,167.14285714285714 159.23076923076923,177.69230769230768 200,300 300,300 278.57142857142856,192.85714285714286 300,200 300,100 278.57142857142856,107.14285714285714 300,0 200,0 150,180 150,150 159.23076923076923,177.69230769230768 150,150 100,300 0,300 0,200 150,150 0,100 0,0 L 100,0 150,150 150,120 159.23076923076923,122.3076923076923 M 201.4285714285714,167.14285714285714 270,150 278.57142857142856,107.14285714285714 201.42857142857144,132.85714285714286 270,150 278.57142857142856,192.85714285714286 201.4285714285714,167.14285714285714"/></svg>
