<svg xmlns="http://www.w3.org/2000/svg" viewBox="-100 -100 500 500"><path style="fill:#000000" fill-rule="evenodd" d="M 0,0 30,0 72.85714285714286,0 51.42857142857143,42.857142857142854 30,0 42.857142857142854,85.71428571428571 34.285714285714285,85.71428571428571 42.857142857142854,107.14285714285714 50,100 64.28571428571428,85.71428571428571 42.857142857142854,85.71428571428571 50,100 150,300 192.85714285714286,214.28571428571428 270,59.99999999999996 278.57142857142856,42.857142857142854 300,0 330,0 330,214.28571428571428 192.85714285714286,214.28571428571428 115.71428571428571,214.28571428571428 115.71428571428571,0 300,0 244.28571428571428,171.42857142857142 244.28571428571428,128.57142857142856 287.1428571428571,171.42857142857142 270,59.99999999999996 244.28571428571428,85.71428571428571 265.7142857142857,42.857142857142854 278.57142857142856,42.857142857142854 287.1428571428571,42.857142857142854 180,128.57142857142856 158.57142857142856,42.857142857142854 201.42857142857142,42.857142857142854 72.85714285714286,0"/></svg>
