<svg xmlns="http://www.w3.org/2000/svg" viewBox="-100 -100 500 500"><path style="fill:#000000" d="M 0,0 300,0 211.36363636363637,177.27272727272725 225.00000000000003,187.5 195,210 211.36363636363637,177.27272727272725 189.54545454545456,160.9090909090909 240,60 60,60 75,90 150,240 189.54545454545456,160.9090909090909 75,75 75,90 75,150 0,0 0,300 0,0 M 75,150 150,300 184.0909090909091,231.8181818181818 195,210 175,225 184.0909090909091,231.8181818181818 225,262.5 75,375 75,150 M 225,262.5 275,225 225.00000000000003,187.5 375,75 375,375 225,262.5"/></svg>
