<svg xmlns="http://www.w3.org/2000/svg" viewBox="-100 -100 500 500"><path style="fill:#000000" fill-rule="evenodd" d="M 0,0 300,0 211.36363636363637,177.27272727272725 225.00000000000003,187.5 195,210 211.36363636363637,177.27272727272725 193.1818181818182,163.63636363636363 250,50 50,50 75,100 150,250 193.1818181818182,163.63636363636363 175,150 200,100 108.33333333333333,100 175,150 150,200 100,100 108.33333333333333,100 75,75 75,100 75,150 0,0 M 75,150 150,300 184.0909090909091,231.8181818181818 195,210 175,225 184.0909090909091,231.8181818181818 225,262.5 75,375 75,150 M 225,262.5 275,225 225.00000000000003,187.5 375,75 375,375 225,262.5"/></svg>
