<svg xmlns="http://www.w3.org/2000/svg" viewBox="-100 -100 500 500"><path style="fill:#000000" d="M 37.5,37.5 75,75 160.71428571428572,139.28571428571428 187.5,112.49999999999999 225,74.99999999999997 262.5,37.5 262.5,159.375 375,75 375,375 225,262.5 225,300 187.5,300 187.5,290.625 75,375 75,225 37.5,262.5 37.5,37.5 L 175,225 187.5,215.625 187.5,234.375 175,225 L 187.5,0 225,0 225,74.99999999999997 225,187.5 187.5,159.375 187.5,112.49999999999999 187.5,0 M 203.57142857142858,203.57142857142858 225,187.5 225,225 203.57142857142858,203.57142857142858 M 225,225 246.42857142857142,246.42857142857142 225,262.5 225,225 M 262.5,215.625 275,225 262.5,234.375 262.5,215.625"/></svg>
