<svg xmlns="http://www.w3.org/2000/svg" viewBox="-100 -100 500 500"><path style="fill:#000000" d="M 150 150 L 0 100 L 0 200 M 196.3235294117647 165.44117647058823 L 150 150 L 187.5 187.5 M 249.45652173913044 116.84782608695653 L 300 100 L 300 148.4375 M 362.5 187.5 L 362.5 62.5 L 237.5 62.5 L 222.5 100 L 249.45652173913044 116.84782608695653 L 210.57692307692307 129.80769230769232 L 222.5 100 L 176.29310344827584 71.12068965517241 L 200 0 L 100 0 L 120.83333333333334 62.5 L 62.5 62.5 L 150 150 L 120.83333333333334 62.5 L 162.5 62.5 L 176.29310344827584 71.12068965517241 L 100 300 L 200 300 L 150 150 L 210.57692307692307 129.80769230769232 L 196.3235294117647 165.44117647058823 L 300 200 L 300 148.4375"/></svg>
