<svg xmlns="http://www.w3.org/2000/svg" viewBox="-100 -100 500 500"><path style="fill:#000000" d="M 85.71428571428571 171.42857142857142 L 60 120 L 0 100 L 0 200 M 128.57142857142856 157.14285714285714 L 120 140 L 90 130 L 107.14285714285714 164.28571428571428 M 100 300 L 120 240 L 150 300 M 150 250 L 130 210 L 140 180 L 150 200 L 160 180 L 170 210 M 183.33333333333331 50 L 116.66666666666666 50 L 133.33333333333331 100 L 166.66666666666666 100 M 150 300 L 180 240 L 200 300 M 192.85714285714286 164.28571428571428 L 171.42857142857144 157.14285714285714 L 180 140 L 210 130 M 214.28571428571428 171.42857142857142 L 240 120 L 300 100 L 300 200"/></svg>
