<svg xmlns="http://www.w3.org/2000/svg" viewBox="-100 -100 500 500"><path style="fill:#000000" d="M 159.23076923076923 177.69230769230768 L 150 150 L 159.23076923076923 122.3076923076923 L 150 120 L 150 150 L 100 0 L 0 0 L 0 100 L 150 150 L 0 200 L 0 300 L 100 300 L 150 150 L 150 180 M 278.57142857142856 192.85714285714286 L 270 150 L 278.57142857142856 107.14285714285714 L 201.42857142857144 132.85714285714286 L 270 150 L 201.4285714285714 167.14285714285714 M 200 300 L 159.23076923076923 177.69230769230768 L 201.4285714285714 167.14285714285714 L 150 150 L 201.42857142857144 132.85714285714286 L 159.23076923076923 122.3076923076923 L 200 0 L 300 0 L 278.57142857142856 107.14285714285714 L 300 100 L 300 200 L 278.57142857142856 192.85714285714286 L 300 300"/></svg>
