<svg xmlns="http://www.w3.org/2000/svg" viewBox="-100 -100 500 500"><path style="fill:#000000" d="M 64.28571428571428 85.71428571428571 L 34.285714285714285 85.71428571428571 L 42.857142857142854 107.14285714285714 M 72.85714285714286 0 L 30 0 L 51.42857142857143 42.857142857142854 M 191.9208494208494 80.8880308880309 L 163.66402116402114 63.22751322751321 L 180 128.57142857142856 M 287.1428571428571 171.42857142857142 L 244.28571428571428 128.57142857142856 L 244.28571428571428 171.42857142857142 M 362.5 187.5 L 362.5 62.5 L 330 62.5 L 330 167.1875 L 222.5 100 L 237.5 62.5 L 255.89285714285714 62.5 L 244.28571428571428 85.71428571428571 L 267.5 62.5 L 255.89285714285714 62.5 L 265.7142857142857 42.857142857142854 L 287.1428571428571 42.857142857142854 L 267.5 62.5 L 330 62.5 L 330 0 L 115.71428571428571 0 L 115.71428571428571 62.5 L 62.5 62.5 L 115.71428571428571 115.7142857142857 L 115.71428571428571 62.5 L 162.5 62.5 L 163.66402116402114 63.22751322751321 L 158.57142857142856 42.857142857142854 L 201.42857142857142 42.857142857142854 L 191.9208494208494 80.8880308880309 L 222.5 100 L 187.5 187.5 L 115.71428571428571 115.7142857142857 L 115.71428571428571 214.28571428571428 L 330 214.28571428571428 L 330 167.1875"/></svg>
