<svg xmlns="http://www.w3.org/2000/svg" viewBox="-100 -100 500 500"><path style="fill:#000000" fill-rule="evenodd" d="M 120 60 L 100 0 L 0 0 L 60 120 L 0 100 L 0 200 L 85.71428571428571 171.42857142857142 L 60 120 L 96 132 L 60 60 M 150 150 L 168 204 L 150 240 L 132 204 L 150 150 L 111.42857142857143 162.85714285714286 L 132 204 L 120 240 L 150 300 L 100 300 L 120 240 L 85.71428571428571 171.42857142857142 L 111.42857142857143 162.85714285714286 L 96 132 L 150 150 L 120 60 L 180 60 M 214.28571428571428 171.42857142857144 L 188.57142857142856 162.85714285714286 L 204 132 L 150 150 L 188.57142857142856 162.85714285714286 L 168 204 L 180 240 L 150 300 L 200 300 L 180 240 M 214.28571428571428 171.42857142857144 L 240 120 L 204 132 L 240 60 L 180 60 L 200 0 L 300 0 L 240 120 L 300 100 L 300 200"/></svg>
