<svg xmlns="http://www.w3.org/2000/svg" viewBox="-100 -100 500 500"><path style="fill:#000000" fill-rule="evenodd" d="M 116.66666666666666 50 L 100 0 L 0 0 L 60 120 L 90 130 L 50 50 M 120 240 L 85.71428571428571 171.42857142857142 L 107.14285714285714 164.28571428571428 L 130 210 M 150 150 L 133.33333333333331 100 L 100 100 L 120 140 M 150 150 L 128.57142857142856 157.14285714285714 L 140 180 M 200 100 L 166.66666666666666 100 L 150 150 L 160 180 L 171.42857142857144 157.14285714285714 L 150 150 L 180 140 M 214.28571428571428 171.42857142857142 L 192.85714285714286 164.28571428571428 L 170 210 L 180 240 M 240 120 L 210 130 L 250 50 L 183.33333333333331 50 L 200 0 L 300 0"/></svg>
