<svg xmlns="http://www.w3.org/2000/svg" viewBox="-100 -100 500 500"><path style="fill:#000000" d="M 100 100 L 115.71428571428571 100 L 115.71428571428571 131.42857142857142 M 187.14285714285714 100 L 172.85714285714286 100 L 180 128.57142857142856 M 150 300 L 50 100 L 64.28571428571428 85.71428571428571 L 42.857142857142854 85.71428571428571 L 0 0 L 30 0 L 51.42857142857143 42.857142857142854 L 72.85714285714286 0 L 115.71428571428571 0 L 115.71428571428571 50 L 50 50 L 115.71428571428571 181.42857142857142 L 115.71428571428571 214.28571428571428 L 132.14285714285714 214.28571428571428 L 150 250 L 167.85714285714286 214.28571428571428 L 192.85714285714286 214.28571428571428 M 201.42857142857142 42.857142857142854 L 158.57142857142856 42.857142857142854 L 160.35714285714283 50 L 199.64285714285714 49.99999999999999 M 270 59.99999999999996 L 244.28571428571428 85.71428571428571 L 265.7142857142857 42.857142857142854 L 278.57142857142856 42.857142857142854"/></svg>
