<svg xmlns="http://www.w3.org/2000/svg" viewBox="-100 -100 500 500"><path style="fill:#000000" fill-rule="evenodd" d="M 150 250 L 116.66666666666666 183.33333333333334 L 133.33333333333334 166.66666666666666 L 150 200 L 166.66666666666666 166.66666666666669 L 183.33333333333334 183.33333333333334 M 187.5 100 L 187.5 50 L 50 50 L 100 100 M 200 200 L 225 150 L 225 225 M 250 50 L 225 50 L 225 75 L 200 100 L 187.5 125 L 187.5 175.00000000000003 L 225 100.00000000000001 L 225 75 M 300 0 L 0 0 L 37.5 75 L 37.5 262.5 L 100 200 L 150 300 L 187.5 225 L 187.5 300 L 225 300 L 225 225 L 262.5 262.5 L 262.5 75"/></svg>
