<svg xmlns="http://www.w3.org/2000/svg" viewBox="-100 -100 500 500"><path style="fill:#000000" fill-rule="evenodd" d="M 100 200 L 37.5 75 L 37.5 262.5 M 240 60 L 225 60 L 225 75 L 187.5 112.5 L 187.5 165 L 180 180 L 187.5 187.5 L 187.5 165 L 225 90 L 225 75 M 262.5 75 L 262.5 37.5 L 240 60 L 225 90 L 225 150 L 200 200 L 225 225 L 225 150 M 262.5 75 L 262.5 262.5 L 225 225 L 225 300 L 187.5 300 L 187.5 225 L 200 200 L 187.5 187.5 L 187.5 225 L 150 300 L 100 200 L 120 180 L 60 60 L 37.5 37.5 L 37.5 75 L 0 0 L 187.5 0 L 187.5 60 L 60 60 L 150 150 L 120 180 L 150 240 L 180 180 L 150 150 L 187.5 112.5 L 187.5 60 L 225 60 L 225 0 L 300 0"/></svg>
