<svg xmlns="http://www.w3.org/2000/svg" viewBox="-100 -100 500 500"><path style="fill:#000000" d="M 115.71428571428571 184.28571428571428 L 115.71428571428571 115.71428571428572 L 37.5 37.5 L 37.5 85.71428571428571 L 64.28571428571428 85.71428571428571 L 42.857142857142854 107.14285714285714 L 37.5 93.75 L 37.5 262.5 M 182.85714285714286 117.14285714285715 L 178.28571428571428 121.71428571428572 L 180 128.57142857142856 M 201.42857142857142 42.857142857142854 L 187.5 42.857142857142854 L 187.5 98.57142857142858 M 244.28571428571428 85.71428571428571 L 262.5 49.28571428571429 L 262.5 67.49999999999997 M 262.5 171.42857142857142 L 262.5 146.78571428571428 L 244.28571428571428 128.57142857142856 L 244.28571428571428 171.42857142857142 M 262.5 262.5 L 262.5 214.28571428571428 L 225 214.28571428571428 L 225 225 L 214.28571428571428 214.28571428571428 L 187.5 214.28571428571428 L 187.5 300 L 225 300 L 225 225"/></svg>
