<svg xmlns="http://www.w3.org/2000/svg" viewBox="-100 -100 500 500"><path style="fill:#000000" fill-rule="evenodd" d="M 116.66666666666666 183.33333333333334 L 50 50 L 37.5 37.5 L 37.5 75 L 100 200 M 150 150 L 100 100 L 133.33333333333334 166.66666666666666 M 183.33333333333334 183.33333333333334 L 187.5 175.00000000000003 L 187.5 187.5 M 200 100 L 187.5 100 L 187.5 112.5 L 150 150 L 166.66666666666666 166.66666666666669 L 187.5 125 L 187.5 112.5 M 200 200 L 187.5 187.5 L 187.5 225 M 225 50 L 225 0 L 187.5 0 L 187.5 50 M 262.5 75 L 262.5 37.5 L 250 50 L 225 100.00000000000001 L 225 150"/></svg>
