<svg xmlns="http://www.w3.org/2000/svg" viewBox="-100 -100 500 500"><path style="fill:#000000" d="M 135 165 L 37.5 48 L 37.5 262.5 M 262.5 262.5 L 262.5 37.5 L 225 75 L 225 225 L 187.5 187.5 L 187.5 300 L 225 300 L 225 225 M 225 56.99999999999999 L 225 75 L 187.5 112.5 L 187.5 187.5 L 150 150 L 187.5 112.5 L 187.5 101.99999999999999 L 225 56.99999999999999 L 225 0 L 187.5 0 L 187.5 101.99999999999999 L 148.63636363636363 148.63636363636363 L 150 150 L 135 165 L 148.63636363636363 148.63636363636363 L 37.5 37.5 L 37.5 48 L -15 -15 L 285 -15"/></svg>
