<svg xmlns="http://www.w3.org/2000/svg" viewBox="-100 -100 500 500"><path style="fill:#000000" d="M 64.28571428571428 85.71428571428571 L 34.285714285714285 85.71428571428571 L 42.857142857142854 107.14285714285714 M 72.85714285714286 0 L 30 0 L 51.42857142857143 42.857142857142854 M 201.42857142857142 42.857142857142854 L 158.57142857142856 42.857142857142854 L 180 128.57142857142856 M 285.7142857142857 214.28571428571428 L 285.7142857142857 285.7142857142857 L -14.285714285714286 285.7142857142857 L -14.285714285714286 -14.285714285714286 L 285.7142857142857 -14.285714285714286 L 285.7142857142857 0 L 115.71428571428571 0 L 115.71428571428571 214.28571428571428 L 285.7142857142857 214.28571428571428 L 285.7142857142857 171.42857142857142 L 287.1428571428571 171.42857142857142 L 285.7142857142857 170.00000000000003 L 285.7142857142857 171.42857142857142 L 244.28571428571428 171.42857142857142 L 244.28571428571428 128.57142857142856 L 285.7142857142857 170.00000000000003 L 285.7142857142857 44.28571428571424 L 287.1428571428571 42.857142857142854 L 285.7142857142857 42.857142857142854 L 285.7142857142857 44.28571428571424 L 244.28571428571428 85.71428571428571 L 265.7142857142857 42.857142857142854 L 285.7142857142857 42.857142857142854 L 285.7142857142857 0 L 330 0 L 330 214.28571428571428"/></svg>
