<svg xmlns="http://www.w3.org/2000/svg" viewBox="-100 -100 500 500"><path style="fill:#000000" fill-rule="evenodd" d="M 137.14285714285714 214.28571428571428 L 115.71428571428571 171.42857142857142 L 115.71428571428571 214.28571428571428 M 162.85714285714286 214.28571428571428 L 137.14285714285714 214.28571428571428 L 150 240 M 197.14285714285714 60 L 162.85714285714283 59.99999999999999 L 180 128.57142857142856 M 162.85714285714286 214.28571428571428 L 192.85714285714286 214.28571428571428 L 150 300 L 50 100 L 64.28571428571428 85.71428571428571 L 42.857142857142854 85.71428571428571 L 50 100 L 42.857142857142854 107.14285714285714 L 34.285714285714285 85.71428571428571 L 42.857142857142854 85.71428571428571 L 0 0 L 30 0 L 51.42857142857143 42.857142857142854 L 72.85714285714286 0 L 115.71428571428571 0 L 115.71428571428571 59.99999999999999 L 60 60 L 115.71428571428571 171.42857142857142 L 115.71428571428571 59.99999999999999 L 162.85714285714283 59.99999999999999 L 158.57142857142856 42.857142857142854 L 201.42857142857142 42.857142857142854 L 197.14285714285714 60 L 240 60 M 287.1428571428571 171.42857142857142 L 244.28571428571428 128.57142857142856 L 244.28571428571428 171.42857142857142 M 192.85714285714286 214.28571428571428 L 270 59.99999999999996 L 244.28571428571428 85.71428571428571 L 265.7142857142857 42.857142857142854 L 278.57142857142856 42.857142857142854 L 270 59.99999999999996 L 287.1428571428571 42.857142857142854 L 278.57142857142856 42.857142857142854 L 300 0 L 330 0 L 330 214.28571428571428"/></svg>
