<svg xmlns="http://www.w3.org/2000/svg" viewBox="-100 -100 500 500"><path style="fill:#000000" d="M 60.35714285714286 25.000000000000004 L 42.5 25.000000000000004 L 51.42857142857143 42.857142857142854 M 64.28571428571428 85.71428571428571 L 34.285714285714285 85.71428571428571 L 42.857142857142854 107.14285714285714 M 244.28571428571428 85.71428571428571 L 265.7142857142857 42.857142857142854 L 287.1428571428571 42.857142857142854 M 287.1428571428571 171.42857142857142 L 244.28571428571428 128.57142857142856 L 244.28571428571428 171.42857142857142 M 325 212.5 L 325 25 L 162.5 25 L 162.5 42.857142857142854 L 158.57142857142856 42.857142857142854 L 162.5 58.57142857142862 L 162.5 42.857142857142854 L 201.42857142857142 42.857142857142854 L 180 128.57142857142856 L 162.5 58.57142857142862 L 162.5 212.5 M 330 214.28571428571428 L 330 0 L 115.71428571428571 0 L 115.71428571428571 25 L 60.35714285714286 25.000000000000004 L 72.85714285714286 0 L 30 0 L 42.5 25.000000000000004 L 25 25 L 115.71428571428571 115.7142857142857 L 115.71428571428571 25 L 137.5 25 L 137.5 137.5 L 115.71428571428571 115.7142857142857 L 115.71428571428571 214.28571428571428"/></svg>
