<svg xmlns="http://www.w3.org/2000/svg" viewBox="-100 -100 500 500"><path style="fill:#000000" d="M 64.28571428571428 85.71428571428571 L 34.285714285714285 85.71428571428571 L 42.857142857142854 107.14285714285714 M 72.85714285714286 0 L 30 0 L 51.42857142857143 42.857142857142854 M 201.42857142857142 42.857142857142854 L 158.57142857142856 42.857142857142854 L 180 128.57142857142856 M 269.6938775510204 153.9795918367347 L 244.28571428571428 128.57142857142856 L 244.28571428571428 171.42857142857142 L 246.42857142857144 171.42857142857142 M 244.28571428571428 85.71428571428571 L 265.7142857142857 42.857142857142854 L 287.1428571428571 42.857142857142854 M 375 375 L 375 75 L 330 108.75000000000001 L 330 0 L 115.71428571428571 0 L 115.71428571428571 105.53571428571428 L 75 75 L 75 375 L 225 262.5 L 175 225 L 189.2857142857143 214.28571428571428 L 260.7142857142857 214.28571428571428 L 275 225 L 225 262.5"/></svg>
