<svg xmlns="http://www.w3.org/2000/svg" viewBox="-100 -100 500 500"><path style="fill:#000000" fill-rule="evenodd" d="M 155 240 L 145 240 L 150 250 M 135.71428571428572 50.000000000000014 L 150 30 L 164.2857142857143 50.000000000000014 M 180 240 L 229.41176470588235 141.17647058823528 L 214.7058823529412 120.58823529411765 L 250 50 L 164.2857142857143 50.000000000000014 L 200 100 L 100 100 L 150 200 L 200 100 L 214.7058823529412 120.58823529411765 L 155 240 L 180 240 L 150 300 L 120 240 L 145 240 L 85.29411764705883 120.58823529411765 L 135.71428571428572 50.000000000000014 L 50 50 L 85.29411764705883 120.58823529411765 L 70.58823529411765 141.1764705882353 L 120 240 L 0 240 L 70.58823529411765 141.1764705882353 L 0 0 L 300 0 L 229.41176470588235 141.17647058823528 L 300 240"/></svg>
