<svg xmlns="http://www.w3.org/2000/svg" viewBox="-100 -100 500 500"><path style="fill:#000000" fill-rule="evenodd" d="M 60 240 L 37.5 240 L 37.5 262.5 M 100 100 L 37.5 37.5 L 37.5 187.5 L 0 240 L 37.5 240 L 37.5 187.5 M 200 100 L 187.5 82.5 L 187.5 112.5 L 150 150 L 187.5 187.5 L 187.5 112.5 M 240 240 L 225 225 L 225 240 L 187.5 240 L 187.5 300 L 225 300 L 225 240 M 225 135 L 225 225 L 187.5 187.5 L 187.5 240 L 60 240 L 150 150 L 100 100 L 150 30 L 187.5 82.5 L 187.5 0 L 225 0 L 225 75 L 200 100 L 225 135 L 225 75 L 262.5 37.5 L 262.5 187.5 M 300 240 L 262.5 187.5 L 262.5 240 L 240 240 L 262.5 262.5 L 262.5 240"/></svg>
