<svg xmlns="http://www.w3.org/2000/svg" viewBox="-100 -100 500 500"><path style="fill:#000000" d="M 225 262.5 L 184.0909090909091 231.8181818181818 L 195 210 L 175 225 L 184.0909090909091 231.8181818181818 L 150 300 L 75 150 L 75 375 M 300 0 L 0 0 L 75 150 L 75 100 L 150 250 L 193.1818181818182 163.63636363636363 L 175 150 L 200 100 L 108.33333333333333 100 L 175 150 L 150 200 L 100 100 L 108.33333333333333 100 L 75 75 L 75 100 L 50 50 L 250 50 L 193.1818181818182 163.63636363636363 L 211.36363636363637 177.27272727272725 L 195 210 L 225 187.5 L 211.36363636363637 177.27272727272725 M 375 375 L 375 75 L 225 187.5 L 275 225 L 225 262.5"/></svg>
