<svg xmlns="http://www.w3.org/2000/svg" viewBox="-100 -100 500 500"><path style="fill:#000000" fill-rule="evenodd" d="M 75 225 L 75 75 L 37.5 37.5 L 37.5 262.5 M 203.57142857142856 203.57142857142856 L 187.5 187.5 L 187.5 215.625 L 175 225 L 187.5 234.375 L 187.5 215.625 M 225 75 L 225 0 L 187.5 0 L 187.5 112.5 L 160.71428571428572 139.28571428571428 L 187.5 159.375 L 187.5 112.5 M 203.57142857142856 203.57142857142856 L 225 187.5 L 225 225 M 225 300 L 225 262.5 L 187.5 290.625 L 187.5 300 M 275 225 L 262.5 215.625 L 262.5 234.375 L 246.42857142857142 246.42857142857144 L 262.5 262.5 L 262.5 234.375 M 375 375 L 375 75 L 262.5 159.375 L 262.5 215.625 L 225 187.5 L 262.5 159.375 L 262.5 37.5 L 225 75 L 225 187.5 L 187.5 159.375 L 187.5 187.5 L 150 150 L 160.71428571428572 139.28571428571428 L 75 75 L 150 150 L 75 225 L 75 375 L 187.5 290.625 L 187.5 234.375 L 225 262.5 L 225 225 L 246.42857142857142 246.42857142857144 L 225 262.5"/></svg>
