<svg xmlns="http://www.w3.org/2000/svg" viewBox="-100 -100 500 500"><path style="fill:#000000" d="M 0 0 L 100 0 L 200 0 L 300 0 L 240 120 L 300 100 L 300 200 L 214.286 171.429 L 180 240 L 200 300 L 150 300 L 100 300 L 120 240 L 85.7143 171.429 L 0 200 L 0 100 L 60 120 M 90 130 L 120 140 L 100 100 L 133.333 100 L 116.667 50 L 50 50 M 130 210 L 140 180 L 128.571 157.143 L 107.143 164.286 M 170 210 L 192.857 164.286 L 171.429 157.143 L 160 180 M 200 100 L 180 140 L 210 130 L 250 50 L 183.333 50 L 166.667 100"/></svg>
