<svg xmlns="http://www.w3.org/2000/svg" viewBox="-100 -100 500 500"><path style="fill:#000000" fill-rule="evenodd" d="M 0 100 L 150 150 L 0 200 M 25 25 L 108.333 25 L 137.5 25 L 137.5 112.5 L 108.333 25 L 100 0 L 200 0 L 191.667 25 L 325 25 L 325 212.5 L 170.833 212.5 L 200 300 L 100 300 L 150 150 L 162.5 112.5 L 191.667 25 L 162.5 25 L 162.5 112.5 L 162.5 145.833 L 150 150 L 162.5 154.167 L 300 200 L 300 100 L 162.5 145.833 L 162.5 154.167 L 162.5 187.5 L 150 150 L 137.5 112.5 L 137.5 137.5 M 162.5 212.5 L 170.833 212.5 L 162.5 187.5"/></svg>
