<svg xmlns="http://www.w3.org/2000/svg" viewBox="-100 -100 500 500"><path style="fill:#000000" d="M -15 -15 L 285 -15 L 272.5 0 L 330 0 L 330 214.286 L 115.714 214.286 L 115.714 141.857 L 135 165 L 176.621 115.055 L 186.276 103.469 L 180 128.571 L 176.621 115.055 L 158.571 42.8571 L 201.429 42.8571 L 186.276 103.469 L 272.5 0 L 115.714 0 L 115.714 141.857 M 51.4286 42.8571 L 72.8571 0 L 30 0 M 34.2857 85.7143 L 64.2857 85.7143 L 42.8571 107.143 M 287.143 42.8571 L 265.714 42.8571 L 244.286 85.7143 M 244.286 171.429 L 287.143 171.429 L 244.286 128.571"/></svg>
