<svg xmlns="http://www.w3.org/2000/svg" viewBox="-100 -100 500 500"><path style="fill:#000000" fill-rule="evenodd" d="M 25 25 L 42.5 25 L 60.3571 25 L 51.4286 42.8571 L 42.5 25 L 30 0 L 72.8571 0 L 60.3571 25 L 115.714 25 L 137.5 25 L 137.5 137.5 L 115.714 115.714 L 115.714 214.286 L 330 214.286 L 330 0 L 115.714 0 L 115.714 25 L 115.714 115.714 M 34.2857 85.7143 L 64.2857 85.7143 L 42.8571 107.143 M 158.571 42.8571 L 162.5 42.8571 L 201.429 42.8571 L 180 128.571 L 162.5 58.5714 L 162.5 212.5 L 325 212.5 L 325 25 L 162.5 25 L 162.5 42.8571 L 162.5 58.5714 M 244.286 85.7143 L 265.714 42.8571 L 287.143 42.8571 M 244.286 128.571 L 287.143 171.429 L 244.286 171.429"/></svg>
