<svg xmlns="http://www.w3.org/2000/svg" viewBox="-100 -100 500 500"><path style="fill:#000000" d="M 0 0 L 30 0 L 51.4286 42.8571 L 72.8571 0 L 115.714 0 L 115.714 50 L 50 50 L 115.714 181.429 L 132.143 214.286 L 115.714 214.286 L 115.714 181.429 L 115.714 131.429 L 150 200 L 200 100 L 187.143 100 L 199.643 50 L 201.429 42.8571 L 158.571 42.8571 L 160.357 50 L 115.714 50 L 115.714 100 L 100 100 L 115.714 131.429 L 115.714 100 L 172.857 100 L 187.143 100 L 180 128.571 L 172.857 100 L 160.357 50 L 199.643 50 L 250 50 L 167.857 214.286 L 192.857 214.286 L 150 300 L 50 100 L 64.2857 85.7143 L 42.8571 85.7143 L 50 100 L 42.8571 107.143 L 34.2857 85.7143 L 42.8571 85.7143 M 150 250 L 167.857 214.286 L 132.143 214.286 M 192.857 214.286 L 270 60 L 278.571 42.8571 L 300 0 L 330 0 L 330 214.286 M 244.286 85.7143 L 265.714 42.8571 L 278.571 42.8571 L 287.143 42.8571 L 270 60 M 244.286 171.429 L 287.143 171.429 L 244.286 128.571"/></svg>
