<svg xmlns="http://www.w3.org/2000/svg" viewBox="-100 -100 500 500"><path style="fill:#000000" fill-rule="evenodd" d="M -14.2857 -14.2857 L 285.714 -14.2857 L 285.714 0 L 115.714 0 L 115.714 214.286 L 285.714 214.286 L 330 214.286 L 330 0 L 285.714 0 L 285.714 42.8571 L 265.714 42.8571 L 244.286 85.7143 L 285.714 44.2857 L 287.143 42.8571 L 285.714 42.8571 L 285.714 44.2857 L 285.714 170 L 244.286 128.571 L 244.286 171.429 L 285.714 171.429 L 287.143 171.429 L 285.714 170 L 285.714 171.429 L 285.714 214.286 L 285.714 285.714 L -14.2857 285.714 M 51.4286 42.8571 L 72.8571 0 L 30 0 M 42.8571 107.143 L 64.2857 85.7143 L 34.2857 85.7143 M 158.571 42.8571 L 201.429 42.8571 L 180 128.571"/></svg>
