<svg xmlns="http://www.w3.org/2000/svg" viewBox="-100 -100 500 500"><path style="fill:#000000" d="M 30 0 L 72.8571 0 L 51.4286 42.8571 M 34.2857 85.7143 L 64.2857 85.7143 L 42.8571 107.143 M 75 75 L 115.714 105.536 L 225 187.5 L 189.286 214.286 L 260.714 214.286 L 330 214.286 L 330 108.75 L 375 75 L 375 375 L 225 262.5 L 275 225 L 260.714 214.286 L 225 187.5 L 246.429 171.429 L 269.694 153.98 L 330 108.75 L 330 0 L 115.714 0 L 115.714 105.536 L 115.714 214.286 L 189.286 214.286 L 175 225 L 225 262.5 L 75 375 M 158.571 42.8571 L 201.429 42.8571 L 180 128.571 M 244.286 85.7143 L 265.714 42.8571 L 287.143 42.8571 M 244.286 128.571 L 269.694 153.98 L 287.143 171.429 L 246.429 171.429 L 244.286 171.429"/></svg>
