<svg xmlns="http://www.w3.org/2000/svg" viewBox="-100 -100 500 500"><path style="fill:#000000" fill-rule="evenodd" d="M 0 0 L 300 0 L 287.5 25 L 325 25 L 325 212.5 L 193.75 212.5 L 287.5 25 L 162.5 25 L 162.5 50 L 137.5 50 L 137.5 100 L 100 100 L 137.5 137.5 L 137.5 100 L 162.5 100 L 200 100 L 162.5 175 L 162.5 212.5 L 168.75 212.5 L 150 250 L 50 50 L 100 100 L 150 200 L 162.5 175 L 162.5 100 L 162.5 50 L 250 50 L 168.75 212.5 L 193.75 212.5 L 150 300 M 50 50 L 137.5 50 L 137.5 25 L 25 25"/></svg>
