<svg xmlns="http://www.w3.org/2000/svg" viewBox="-100 -100 500 500"><path style="fill:#000000" fill-rule="evenodd" d="M 0 100 L 115.714 138.571 L 150 150 L 115.714 161.429 L 115.714 214.286 L 128.571 214.286 L 100 300 L 200 300 L 171.429 214.286 L 330 214.286 L 330 0 L 200 0 L 185.714 42.8571 L 201.429 42.8571 L 180 128.571 L 170.204 89.3878 L 185.714 42.8571 L 158.571 42.8571 L 170.204 89.3878 L 150 150 L 300 100 L 300 200 L 150 150 L 171.429 214.286 L 128.571 214.286 L 150 150 L 115.714 47.1429 L 115.714 138.571 L 115.714 161.429 L 0 200 M 30 0 L 72.8571 0 L 51.4286 42.8571 M 34.2857 85.7143 L 64.2857 85.7143 L 42.8571 107.143 M 100 0 L 115.714 0 L 115.714 47.1429 M 244.286 85.7143 L 265.714 42.8571 L 287.143 42.8571 M 244.286 171.429 L 287.143 171.429 L 244.286 128.571"/></svg>
