<svg xmlns="http://www.w3.org/2000/svg" viewBox="-100 -100 500 500"><path style="fill:#000000" fill-rule="evenodd" d="M 0 0 L 300 0 L 211.364 177.273 L 225 187.5 L 195 210 L 211.364 177.273 L 193.182 163.636 L 250 50 L 50 50 L 75 100 L 150 250 L 193.182 163.636 L 175 150 L 200 100 L 108.333 100 L 175 150 L 150 200 L 100 100 L 108.333 100 L 75 75 L 75 100 L 75 150 M 75 375 L 225 262.5 L 184.091 231.818 L 175 225 L 195 210 L 184.091 231.818 L 150 300 L 75 150 M 225 262.5 L 275 225 L 225 187.5 L 375 75 L 375 375"/></svg>
