<svg xmlns="http://www.w3.org/2000/svg" viewBox="-100 -100 500 500"><path style="fill:#000000" d="M 37.5 37.5 L 42.8571 42.8571 L 128.571 42.8571 L 100 100 L 150 150 L 37.5 262.5 M 85.7143 128.571 L 100 100 L 42.8571 42.8571 M 150 150 L 187.5 112.5 L 225 75 L 257.143 42.8571 L 262.5 37.5 L 262.5 42.8571 L 257.143 42.8571 L 262.5 53.5714 L 300 128.571 L 342.857 42.8571 L 262.5 42.8571 L 262.5 53.5714 L 262.5 262.5 L 225 225 L 225 300 L 187.5 300 L 187.5 187.5 L 225 225 L 225 75 L 225 0 L 187.5 0 L 187.5 112.5 L 187.5 187.5"/></svg>
