<svg xmlns="http://www.w3.org/2000/svg" viewBox="-100 -100 500 500"><path style="fill:#000000" d="M 0 0 L 187.5 0 L 187.5 50 L 50 50 L 37.5 37.5 L 37.5 75 M 100 100 L 187.5 100 L 187.5 112.5 L 150 150 L 166.667 166.667 L 150 200 L 133.333 166.667 L 150 150 M 100 200 L 116.667 183.333 L 150 250 L 183.333 183.333 L 187.5 187.5 L 200 200 L 225 150 L 225 100 L 187.5 175 L 187.5 187.5 L 187.5 225 L 150 300 M 187.5 112.5 L 200 100 L 187.5 125 M 225 0 L 300 0 L 262.5 75 L 262.5 37.5 L 250 50 L 225 50"/></svg>
