<svg xmlns="http://www.w3.org/2000/svg" viewBox="-100 -100 500 500"><path style="fill:#000000" d="M 37.5 37.5 L 75 75 L 160.714 139.286 L 187.5 112.5 L 225 75 L 262.5 37.5 L 262.5 159.375 L 375 75 L 375 375 L 225 262.5 L 225 300 L 187.5 300 L 187.5 290.625 L 75 375 L 75 225 L 37.5 262.5 M 187.5 234.375 L 187.5 215.625 L 175 225 M 187.5 0 L 225 0 L 225 75 L 225 187.5 L 187.5 159.375 L 187.5 112.5 M 203.571 203.571 L 225 187.5 L 225 225 M 225 262.5 L 246.429 246.429 L 225 225 M 262.5 234.375 L 275 225 L 262.5 215.625"/></svg>
