<svg xmlns="http://www.w3.org/2000/svg" viewBox="-100 -100 500 500"><path style="fill:#000000" fill-rule="evenodd" d="M 30 0 L 72.8571 0 L 51.4286 42.8571 M 34.2857 85.7143 L 37.5 85.7143 L 37.5 37.5 L 115.714 115.714 L 115.714 0 L 187.5 0 L 225 0 L 330 0 L 330 214.286 L 262.5 214.286 L 262.5 262.5 L 225 225 L 225 300 L 187.5 300 L 187.5 214.286 L 115.714 214.286 L 115.714 184.286 L 37.5 262.5 L 37.5 93.75 M 178.286 121.714 L 182.857 117.143 L 187.5 98.5714 L 187.5 42.8571 L 158.571 42.8571 M 225 225 L 225 214.286 L 214.286 214.286 M 262.5 67.5 L 287.143 42.8571 L 265.714 42.8571 L 262.5 49.2857 M 262.5 171.429 L 287.143 171.429 L 262.5 146.786"/></svg>
