<svg xmlns="http://www.w3.org/2000/svg" viewBox="-100 -100 500 500"><path style="fill:#000000" d="M 0 240 L 115.714 78 L 150 30 L 159.184 42.8571 L 158.571 42.8571 L 180 128.571 L 190.476 86.6667 L 201.429 42.8571 L 159.184 42.8571 L 190.476 86.6667 L 244.286 162 L 251.02 171.429 L 244.286 171.429 L 244.286 162 L 244.286 128.571 L 287.143 171.429 L 251.02 171.429 L 281.633 214.286 L 115.714 214.286 L 115.714 78 L 115.714 0 L 330 0 L 330 214.286 L 281.633 214.286 L 300 240 M 30 0 L 72.8571 0 L 51.4286 42.8571 M 34.2857 85.7143 L 64.2857 85.7143 L 42.8571 107.143 M 287.143 42.8571 L 265.714 42.8571 L 244.286 85.7143"/></svg>
