<svg xmlns="http://www.w3.org/2000/svg" viewBox="-100 -100 500 500"><path style="fill:#000000" fill-rule="evenodd" d="M 100 0 L 0 0 L 60 120 L 0 100 L 0 200 L 85.71428680419922 171.42857360839844 L 120 240 L 100 300 L 200 300 L 180 240 L 214.2857208251953 171.42857360839844 L 300 200 L 300 100 L 240 120 L 300 0 L 200 0 L 150 150 L 100 0 M 150 150 L 214.2857208251953 171.42857360839844 L 240 120 L 150 150 M 150 150 L 180 240 L 150 300 L 120 240 L 150 150 M 150 150 L 85.71428680419922 171.42857360839844 L 60 120 L 150 150"/></svg>
