<svg xmlns="http://www.w3.org/2000/svg" viewBox="-100 -100 500 500"><path style="fill:#000000" fill-rule="evenodd" d="M 151.6666717529297 145 L 285 -15 L -15 -15 L 111.92308044433594 137.3076934814453 L 0 100 L 0 200 L 128.47825622558594 157.17391967773438 L 135 165 L 146.53846740722656 151.15383911132812 L 150 150 L 100 300 L 200 300 L 150 150 L 300 200 L 300 100 L 150 150 L 151.6666717529297 145 M 149.2857208251953 147.85714721679688 L 100 0 L 200 0 L 151.6666717529297 145 L 149.2857208251953 147.85714721679688 M 149.2857208251953 147.85714721679688 L 150 150 L 148.04347229003906 149.3478240966797 L 149.2857208251953 147.85714721679688 M 148.04347229003906 149.3478240966797 L 111.92308044433594 137.3076934814453 L 128.47825622558594 157.17391967773438 L 146.53846740722656 151.15383911132812 L 148.04347229003906 149.3478240966797"/></svg>
