<svg xmlns="http://www.w3.org/2000/svg" viewBox="-100 -100 500 500"><path style="fill:#000000" fill-rule="evenodd" d="M 268.75 62.5 L 300 0 L 0 0 L 150 300 L 243.45237731933594 113.0952377319336 L 362.5 187.5 L 362.5 62.5 L 268.75 62.5 M 238.75 62.5 L 268.75 62.5 L 243.45237731933594 113.0952377319336 L 222.5 100 L 232.5 75 L 238.75 62.5 M 237.5 62.5 L 232.5 75 L 220.59524536132812 98.80952453613281 L 162.5 62.5 L 62.5 62.5 L 180 180 L 150 240 L 60 60 L 240 60 L 238.75 62.5 L 237.5 62.5 M 180 180 L 187.5 187.5 L 222.5 100 L 220.59524536132812 98.80952453613281 L 180 180"/></svg>
