<svg xmlns="http://www.w3.org/2000/svg" viewBox="-100 -100 500 500"><path style="fill:#000000" fill-rule="evenodd" d="M 225 0 L 187.5 0 L 187.5 78.125 L 162.5 62.5 L 62.5 62.5 L 37.5 37.5 L 37.5 262.5 L 187.5 112.5 L 187.5 300 L 225 300 L 225 225 L 262.5 262.5 L 262.5 125 L 362.5 187.5 L 362.5 62.5 L 262.5 62.5 L 262.5 37.5 L 225 75 L 225 0 M 225 93.75 L 237.5 62.5 L 262.5 62.5 L 262.5 125 L 225 101.5625 L 225 93.75 M 222.5 100 L 225 93.75 L 225 75 L 208.65383911132812 91.34615325927734 L 187.5 78.125 L 187.5 112.5 L 208.65383911132812 91.34615325927734 L 222.5 100 M 222.5 100 L 187.5 187.5 L 225 225 L 225 101.5625 L 222.5 100"/></svg>
