<svg xmlns="http://www.w3.org/2000/svg" viewBox="-100 -100 500 500"><path style="fill:#000000" fill-rule="evenodd" d="M 268.75 62.5 L 300 0 L 0 0 L 150 300 L 243.45237731933594 113.0952377319336 L 362.5 187.5 L 362.5 62.5 L 268.75 62.5 M 243.75 62.5 L 268.75 62.5 L 243.45237731933594 113.0952377319336 L 224.40475463867188 101.19047546386719 L 243.75 62.5 M 237.5 62.5 L 222.5 100 L 162.5 62.5 L 62.5 62.5 L 100 100 L 150 200 L 166.6666717529297 166.6666717529297 L 183.3333282470703 183.3333282470703 L 150 250 L 50 50 L 250 50 L 243.75 62.5 L 237.5 62.5 M 183.3333282470703 183.3333282470703 L 212.5 125 L 187.5 187.5 L 183.3333282470703 183.3333282470703 M 166.6666717529297 166.6666717529297 L 200 100 L 100 100 L 166.6666717529297 166.6666717529297 M 212.5 125 L 224.40475463867188 101.19047546386719 L 222.5 100 L 212.5 125"/></svg>
