<svg xmlns="http://www.w3.org/2000/svg" viewBox="-100 -100 500 500"><path style="fill:#000000" fill-rule="evenodd" d="M 229.41175842285156 141.1764678955078 L 300 0 L 0 0 L 70.5882339477539 141.1764678955078 L 0 240 L 120 240 L 150 300 L 180 240 L 300 240 L 229.41175842285156 141.1764678955078 M 211.76470947265625 116.47058868408203 L 229.41175842285156 141.1764678955078 L 180 240 L 150 240 L 211.76470947265625 116.47058868408203 M 171.42857360839844 60 L 240 60 L 211.76470947265625 116.47058868408203 L 171.42857360839844 60 M 128.57142639160156 60 L 150 30 L 171.42857360839844 60 L 128.57142639160156 60 M 128.57142639160156 60 L 88.23529052734375 116.47058868408203 L 60 60 L 128.57142639160156 60 M 88.23529052734375 116.47058868408203 L 70.5882339477539 141.1764678955078 L 120 240 L 150 240 L 88.23529052734375 116.47058868408203"/></svg>
