<svg xmlns="http://www.w3.org/2000/svg" viewBox="-100 -100 500 500"><path style="fill:#000000" fill-rule="evenodd" d="M 100 0 L 0 0 L 60 120 L 0 100 L 0 200 L 85.71428680419922 171.42857360839844 L 120 240 L 100 300 L 200 300 L 180 240 L 214.2857208251953 171.42857360839844 L 300 200 L 300 100 L 240 120 L 300 0 L 200 0 L 183.3333282470703 50 L 116.66666412353516 50 L 100 0 M 133.3333282470703 100 L 116.66666412353516 50 L 50 50 L 90 130 L 60 120 L 85.71428680419922 171.42857360839844 L 107.14286041259766 164.2857208251953 L 130 210 L 120 240 L 150 300 L 180 240 L 170 210 L 192.85714721679688 164.2857208251953 L 214.2857208251953 171.42857360839844 L 240 120 L 210 130 L 250 50 L 183.3333282470703 50 L 166.6666717529297 100 L 133.3333282470703 100 M 150 150 L 133.3333282470703 100 L 100 100 L 120 140 L 90 130 L 107.14286041259766 164.2857208251953 L 128.57142639160156 157.14285278320312 L 140 180 L 130 210 L 150 250 L 170 210 L 160 180 L 171.42857360839844 157.14285278320312 L 192.85714721679688 164.2857208251953 L 210 130 L 180 140 L 200 100 L 166.6666717529297 100 L 150 150 M 150 150 L 171.42857360839844 157.14285278320312 L 180 140 L 150 150 M 150 150 L 160 180 L 150 200 L 140 180 L 150 150 M 150 150 L 128.57142639160156 157.14285278320312 L 120 140 L 150 150"/></svg>
