<svg xmlns="http://www.w3.org/2000/svg" viewBox="-100 -100 500 500"><path style="fill:#000000" fill-rule="evenodd" d="M 230 140 L 300 0 L 270 150 L 230 140 M 218.57142639160156 162.85714721679688 L 270 150 L 300 300 L 150 300 L 218.57142639160156 162.85714721679688 M 190 170 L 150 250 L 50 50 L 250 50 L 207.77777099609375 134.44444274902344 L 185.55555725097656 128.88888549804688 L 200 100 L 100 100 L 150 200 L 161.42857360839844 177.14285278320312 L 190 170 M 161.42857360839844 177.14285278320312 L 185.55555725097656 128.88888549804688 L 150 120 L 150 180 L 161.42857360839844 177.14285278320312 M 190 170 L 218.57142639160156 162.85714721679688 L 230 140 L 207.77777099609375 134.44444274902344 L 190 170 M 150 300 L 0 300 L 0 0 L 150 300"/></svg>
