<svg xmlns="http://www.w3.org/2000/svg" viewBox="-100 -100 500 500"><path style="fill:#000000" fill-rule="evenodd" d="M 115.71428680419922 115.71428680419922 L 37.5 37.5 L 37.5 85.71428680419922 L 64.28571319580078 85.71428680419922 L 42.85714340209961 107.14286041259766 L 37.5 93.75 L 37.5 262.5 L 115.71428680419922 184.28570556640625 L 115.71428680419922 115.71428680419922 M 187.5 214.2857208251953 L 187.5 300 L 225 300 L 225 225 L 262.5 262.5 L 262.5 214.2857208251953 L 225 214.2857208251953 L 225 225 L 214.2857208251953 214.2857208251953 L 187.5 214.2857208251953 M 262.5 49.28573226928711 L 244.2857208251953 85.71428680419922 L 262.5 67.5 L 262.5 49.28573226928711 M 262.5 146.78570556640625 L 244.2857208251953 128.57142639160156 L 244.2857208251953 171.42857360839844 L 262.5 171.42857360839844 L 262.5 146.78570556640625 M 187.5 98.5714340209961 L 201.42857360839844 42.85714340209961 L 187.5 42.85714340209961 L 187.5 98.5714340209961 M 178.2857208251953 121.71428680419922 L 180 128.57142639160156 L 182.85714721679688 117.14286041259766 L 178.2857208251953 121.71428680419922"/></svg>
