<svg xmlns="http://www.w3.org/2000/svg" viewBox="-100 -100 500 500"><path style="fill:#000000" fill-rule="evenodd" d="M 100 200 L 37.5 75 L 37.5 37.5 L 50 50 L 116.66666412353516 183.3333282470703 L 100 200 M 225 0 L 187.5 0 L 187.5 50 L 225 50 L 225 0 M 250 50 L 262.5 37.5 L 262.5 75 L 225 150 L 225 100 L 250 50 M 200 100 L 187.5 100 L 187.5 112.5 L 150 150 L 100 100 L 133.3333282470703 166.6666717529297 L 150 150 L 166.6666717529297 166.6666717529297 L 187.5 125 L 187.5 112.5 L 200 100 M 187.5 175 L 183.3333282470703 183.3333282470703 L 187.5 187.5 L 187.5 225 L 200 200 L 187.5 187.5 L 187.5 175"/></svg>
