<svg xmlns="http://www.w3.org/2000/svg" viewBox="-100 -100 500 500"><path style="fill:#000000" fill-rule="evenodd" d="M 51.42856979370117 42.85714340209961 L 72.85713958740234 0 L 30 0 L 51.42856979370117 42.85714340209961 M 187.5 0 L 115.71428680419922 0 L 115.71428680419922 115.71428680419922 L 37.5 37.5 L 37.5 85.71428680419922 L 34.28571319580078 85.71428680419922 L 37.5 93.75 L 37.5 262.5 L 115.71428680419922 184.28570556640625 L 115.71428680419922 214.2857208251953 L 187.5 214.2857208251953 L 187.5 300 L 225 300 L 225 225 L 262.5 262.5 L 262.5 214.2857208251953 L 330 214.2857208251953 L 330 0 L 187.5 0 M 187.5 42.85714340209961 L 158.57142639160156 42.85714340209961 L 178.2857208251953 121.71428680419922 L 182.85714721679688 117.14286041259766 L 187.5 98.5714340209961 L 187.5 42.85714340209961 M 262.5 67.5 L 262.5 49.28573226928711 L 265.71429443359375 42.85714340209961 L 287.1428527832031 42.85714340209961 L 262.5 67.5 M 262.5 171.42857360839844 L 262.5 146.78570556640625 L 287.1428527832031 171.42857360839844 L 262.5 171.42857360839844 M 225 214.2857208251953 L 225 225 L 214.2857208251953 214.2857208251953 L 225 214.2857208251953"/></svg>
