<svg xmlns="http://www.w3.org/2000/svg" viewBox="-100 -100 500 500"><path style="fill:#000000" fill-rule="evenodd" d="M 51.42856979370117 42.85714340209961 L 72.85713958740234 0 L 30 0 L 51.42856979370117 42.85714340209961 M 330 0 L 115.71428680419922 0 L 115.71428680419922 62.5 L 62.5 62.5 L 115.71428680419922 115.71428680419922 L 115.71428680419922 214.2857208251953 L 330 214.2857208251953 L 330 167.1875 L 362.5 187.5 L 362.5 62.5 L 330 62.5 L 330 0 M 267.5 62.5 L 330 62.5 L 330 167.1875 L 222.5 100 L 237.5 62.5 L 255.8928680419922 62.5 L 244.2857208251953 85.71428680419922 L 267.5 62.5 M 267.5 62.5 L 255.8928680419922 62.5 L 265.71429443359375 42.85714340209961 L 287.1428527832031 42.85714340209961 L 267.5 62.5 M 191.9208526611328 80.88803100585938 L 222.5 100 L 187.5 187.5 L 115.71428680419922 115.71428680419922 L 115.71428680419922 62.5 L 162.5 62.5 L 163.6640167236328 63.22751235961914 L 180 128.57142639160156 L 191.9208526611328 80.88803100585938 M 191.9208526611328 80.88803100585938 L 163.6640167236328 63.22751235961914 L 163.48214721679688 62.5 L 158.57142639160156 42.85714340209961 L 201.42857360839844 42.85714340209961 L 196.51785278320312 62.5 L 191.9208526611328 80.88803100585938 M 64.28571319580078 85.71428680419922 L 34.28571319580078 85.71428680419922 L 42.85714340209961 107.14286041259766 L 64.28571319580078 85.71428680419922 M 244.2857208251953 128.57142639160156 L 287.1428527832031 171.42857360839844 L 244.2857208251953 171.42857360839844 L 244.2857208251953 128.57142639160156"/></svg>
