<svg xmlns="http://www.w3.org/2000/svg" viewBox="-100 -100 500 500"><path style="fill:#000000" fill-rule="evenodd" d="M 30 0 L 0 0 L 42.85714340209961 85.71428680419922 L 34.28571319580078 85.71428680419922 L 42.85714340209961 107.14286041259766 L 50 100 L 150 300 L 192.85714721679688 214.2857208251953 L 330 214.2857208251953 L 330 0 L 30 0 M 115.71428680419922 60 L 60 60 L 115.71428680419922 171.42857360839844 L 115.71428680419922 60 M 137.14285278320312 214.2857208251953 L 150 240 L 162.85714721679688 214.2857208251953 L 137.14285278320312 214.2857208251953 M 162.85714721679688 60 L 197.14285278320312 60 L 180 128.57142639160156 L 162.85714721679688 60 M 270 60 L 278.5714416503906 42.85714340209961 L 287.1428527832031 42.85714340209961 L 270 60 M 244.2857208251953 128.57142639160156 L 287.1428527832031 171.42857360839844 L 244.2857208251953 171.42857360839844 L 244.2857208251953 128.57142639160156"/></svg>
