<svg xmlns="http://www.w3.org/2000/svg" viewBox="-100 -100 500 500"><path style="fill:#000000" fill-rule="evenodd" d="M 42.85714340209961 85.71428680419922 L 34.28571319580078 85.71428680419922 L 42.85714340209961 107.14286041259766 L 50 100 L 42.85714340209961 85.71428680419922 M 192.85714721679688 214.2857208251953 L 330 214.2857208251953 L 330 0 L 300 0 L 278.5714416503906 42.85714340209961 L 287.1428527832031 42.85714340209961 L 270 60 L 192.85714721679688 214.2857208251953 M 132.14285278320312 214.2857208251953 L 115.71428680419922 181.42857360839844 L 115.71428680419922 131.42857360839844 L 150 200 L 200 100 L 187.14285278320312 100 L 199.64285278320312 50 L 250 50 L 167.85714721679688 214.2857208251953 L 132.14285278320312 214.2857208251953 M 160.35714721679688 50 L 115.71428680419922 50 L 115.71428680419922 100 L 172.85714721679688 100 L 160.35714721679688 50 M 244.2857208251953 128.57142639160156 L 287.1428527832031 171.42857360839844 L 244.2857208251953 171.42857360839844 L 244.2857208251953 128.57142639160156"/></svg>
