<svg xmlns="http://www.w3.org/2000/svg" viewBox="-100 -100 500 500"><path style="fill:#000000" fill-rule="evenodd" d="M 30 0 L 0 0 L 0 300 L 300 300 L 282.8571472167969 214.2857208251953 L 330 214.2857208251953 L 330 0 L 300 0 L 270 150 L 264.28570556640625 148.57142639160156 L 244.2857208251953 128.57142639160156 L 244.2857208251953 143.57142639160156 L 180.25210571289062 127.56302642822266 L 201.42857360839844 42.85714340209961 L 158.57142639160156 42.85714340209961 L 179.7142791748047 127.42857360839844 L 150 120 L 150 180 L 244.2857208251953 156.42857360839844 L 244.2857208251953 171.42857360839844 L 274.28570556640625 171.42857360839844 L 282.8571472167969 214.2857208251953 L 115.71428680419922 214.2857208251953 L 115.71428680419922 0 L 72.85713958740234 0 L 51.42856979370117 42.85714340209961 L 30 0 M 271.0714416503906 155.35714721679688 L 274.28570556640625 171.42857360839844 L 287.1428527832031 171.42857360839844 L 271.0714416503906 155.35714721679688 M 271.0714416503906 155.35714721679688 L 270 150 L 266.5714416503906 150.85714721679688 L 264.28570556640625 148.57142639160156 L 244.2857208251953 143.57142639160156 L 244.2857208251953 156.42857360839844 L 266.5714416503906 150.85714721679688 L 271.0714416503906 155.35714721679688 M 179.7142791748047 127.42857360839844 L 180 128.57142639160156 L 180.25210571289062 127.56302642822266 L 179.7142791748047 127.42857360839844 M 287.1428527832031 42.85714340209961 L 244.2857208251953 85.71428680419922 L 265.71429443359375 42.85714340209961 L 287.1428527832031 42.85714340209961 M 64.28571319580078 85.71428680419922 L 34.28571319580078 85.71428680419922 L 42.85714340209961 107.14286041259766 L 64.28571319580078 85.71428680419922"/></svg>
