<svg xmlns="http://www.w3.org/2000/svg" viewBox="-100 -100 500 500"><path style="fill:#000000" fill-rule="evenodd" d="M 51.42856979370117 42.85714340209961 L 72.85713958740234 0 L 30 0 L 51.42856979370117 42.85714340209961 M 115.71428680419922 68.57142639160156 L 128.57142639160156 42.85714340209961 L 115.71428680419922 42.85714340209961 L 115.71428680419922 0 L 330 0 L 330 42.85714340209961 L 257.1428527832031 42.85714340209961 L 261.4285888671875 51.428585052490234 L 244.2857208251953 85.71428680419922 L 267.1428527832031 62.857147216796875 L 300 128.57142639160156 L 330 68.5714340209961 L 330 214.2857208251953 L 115.71428680419922 214.2857208251953 L 115.71428680419922 68.57142639160156 M 64.28571319580078 85.71428680419922 L 34.28571319580078 85.71428680419922 L 42.85714340209961 107.14286041259766 L 64.28571319580078 85.71428680419922 M 244.2857208251953 128.57142639160156 L 287.1428527832031 171.42857360839844 L 244.2857208251953 171.42857360839844 L 244.2857208251953 128.57142639160156 M 180 128.57142639160156 L 158.57142639160156 42.85714340209961 L 201.42857360839844 42.85714340209961 L 180 128.57142639160156"/></svg>
