<svg xmlns="http://www.w3.org/2000/svg" viewBox="-100 -100 500 500"><path style="fill:#000000" fill-rule="evenodd" d="M 51.42856979370117 42.85714340209961 L 72.85713958740234 0 L 30 0 L 51.42856979370117 42.85714340209961 M 115.71428680419922 47.142860412597656 L 115.71428680419922 138.57142639160156 L 150 150 L 115.71428680419922 161.42857360839844 L 115.71428680419922 214.2857208251953 L 128.57142639160156 214.2857208251953 L 150 150 L 171.42857360839844 214.2857208251953 L 330 214.2857208251953 L 330 0 L 200 0 L 185.7142791748047 42.85714340209961 L 201.42857360839844 42.85714340209961 L 180 128.57142639160156 L 170.20408630371094 89.38775634765625 L 150 150 L 115.71428680419922 47.142860412597656 M 150 150 L 300 200 L 300 100 L 150 150 M 287.1428527832031 42.85714340209961 L 244.2857208251953 85.71428680419922 L 265.71429443359375 42.85714340209961 L 287.1428527832031 42.85714340209961 M 64.28571319580078 85.71428680419922 L 34.28571319580078 85.71428680419922 L 42.85714340209961 107.14286041259766 L 64.28571319580078 85.71428680419922"/></svg>
