<svg xmlns="http://www.w3.org/2000/svg" viewBox="-100 -100 500 500"><path style="fill:#000000" fill-rule="evenodd" d="M 211.36363220214844 177.27272033691406 L 300 0 L 0 0 L 75 150 L 75 375 L 225 262.5 L 375 375 L 375 75 L 225 187.5 L 211.36363220214844 177.27272033691406 M 195 210 L 225 187.5 L 275 225 L 225 262.5 L 184.09091186523438 231.81817626953125 L 195 210 M 195 210 L 175 225 L 184.09091186523438 231.81817626953125 L 150 300 L 75 150 L 75 90 L 150 240 L 189.5454559326172 160.90908813476562 L 211.36363220214844 177.27272033691406 L 195 210 M 189.5454559326172 160.90908813476562 L 75 75 L 75 90 L 60 60 L 240 60 L 189.5454559326172 160.90908813476562"/></svg>
